<svg xmlns="http://www.w3.org/2000/svg" xmlns:xlink="http://www.w3.org/1999/xlink" width="130" height="120" viewBox="0 0 130 120">
  <defs>
    <clipPath id="clip-path">
      <rect id="Rect치ngulo_35861" data-name="Rect치ngulo 35861" width="78" height="82" transform="translate(759 1799)" fill="#fd7f23"/>
    </clipPath>
  </defs>
  <g id="Grupo_176253" data-name="Grupo 176253" transform="translate(-733 -1780)">
    <rect id="Rect치ngulo_35848" data-name="Rect치ngulo 35848" width="130" height="120" transform="translate(733 1780)" fill="none"/>
    <g id="Enmascarar_grupo_272" data-name="Enmascarar grupo 272" clip-path="url(#clip-path)">
      <g id="cacao_1_" data-name="cacao (1)" transform="translate(757 1799)">
        <g id="Grupo_176251" data-name="Grupo 176251">
          <path id="Trazado_125850" data-name="Trazado 125850" d="M63.312,57.545c2.944-12.736,9.3-27.083,11.6-37.491C76.45,13.115,71.9,9.724,68.7,8.234a16.756,16.756,0,0,1-4.8-3.361c-2.5-2.5-7.237-5.615-13.232-1.8C41.674,8.8,30.364,19.677,19.4,26.8,1.879,38.188,5.77,61.909,12.924,75.921a8.4,8.4,0,0,0,6.446,4.514c15.614,1.93,39.235-2.527,43.943-22.89Z" fill="#f4c0a6"/>
          <path id="Trazado_125851" data-name="Trazado 125851" d="M19.585,78.723C12.431,64.711,8.541,40.99,26.065,29.6c10.961-7.123,22.27-18,31.262-23.725a10.281,10.281,0,0,1,5.732-1.784C60.416,1.807,56.046-.35,50.666,3.075,41.673,8.8,30.364,19.677,19.4,26.8,1.879,38.188,5.77,61.909,12.924,75.921a8.4,8.4,0,0,0,6.446,4.514q.753.093,1.53.166A8.378,8.378,0,0,1,19.585,78.723Z" fill="#e9ae8d"/>
          <path id="Trazado_125852" data-name="Trazado 125852" d="M43.416,72.4c8.027-3.249,12.965-8.649,14.676-16.05C61.108,43.3,67.479,28.86,69.682,18.907c.759-3.426-1.112-4.818-3.247-5.81-4.561-2.121-6.142-4.517-7.653-5.575-1.386-.971-3.034-1.334-5.249.077-8.593,5.47-19.987,16.4-31.22,23.7-6.37,4.139-9.755,10.626-10.063,19.28A49.183,49.183,0,0,0,17.682,73.5a3.038,3.038,0,0,0,2.337,1.636,49.183,49.183,0,0,0,23.4-2.735Z" fill="#855151"/>
          <path id="Trazado_125853" data-name="Trazado 125853" d="M20.291,53.4c.308-8.654,3.693-15.141,10.063-19.28,11.233-7.3,22.627-18.227,31.22-23.7.1-.062.192-.119.287-.174-1.379-1.136-2.241-2.135-3.079-2.723-1.386-.971-3.034-1.334-5.249.077-8.593,5.47-19.987,16.4-31.22,23.7-6.37,4.139-9.755,10.626-10.063,19.28A49.183,49.183,0,0,0,17.682,73.5a3.038,3.038,0,0,0,2.337,1.636,49.538,49.538,0,0,0,5.3.362,49.016,49.016,0,0,1-5.024-22.1Z" fill="#704444"/>
          <g id="Grupo_176248" data-name="Grupo 176248">
            <path id="Trazado_125854" data-name="Trazado 125854" d="M57.663,45.785l-25.277-17.7a3.052,3.052,0,0,0-4.238.747l-.32.457a3.052,3.052,0,0,0,.747,4.238l25.277,17.7a3.052,3.052,0,0,0,4.238-.747l.32-.457A3.052,3.052,0,0,0,57.663,45.785Z" fill="#9c5e5e"/>
            <path id="Trazado_125855" data-name="Trazado 125855" d="M53.852,51.229l-25.277-17.7a3.052,3.052,0,0,0-4.238.747l-.32.457a3.052,3.052,0,0,0,.747,4.238l25.277,17.7a3.052,3.052,0,0,0,4.238-.747l.32-.457A3.052,3.052,0,0,0,53.852,51.229Z" fill="#9c5e5e"/>
            <path id="Trazado_125856" data-name="Trazado 125856" d="M50.041,56.672l-25.277-17.7a3.052,3.052,0,0,0-4.238.747l-.32.457a3.052,3.052,0,0,0,.747,4.238l25.277,17.7a3.052,3.052,0,0,0,4.238-.747l.32-.457A3.052,3.052,0,0,0,50.041,56.672Z" fill="#9c5e5e"/>
            <path id="Trazado_125857" data-name="Trazado 125857" d="M46.229,62.115l-25.277-17.7a3.052,3.052,0,0,0-4.238.747l-.32.457a3.052,3.052,0,0,0,.747,4.238l25.277,17.7a3.052,3.052,0,0,0,4.238-.747l.32-.457A3.052,3.052,0,0,0,46.229,62.115Z" fill="#9c5e5e"/>
          </g>
          <g id="Grupo_176249" data-name="Grupo 176249">
            <path id="Trazado_125858" data-name="Trazado 125858" d="M64.056,25.927l-15.2-10.64a3.052,3.052,0,0,0-4.238.747l-.32.457a3.052,3.052,0,0,0,.747,4.238l15.2,10.64a3.052,3.052,0,0,0,4.238-.747l.32-.457A3.052,3.052,0,0,0,64.056,25.927Z" fill="#af6c6c"/>
            <path id="Trazado_125859" data-name="Trazado 125859" d="M60.245,31.37,45.05,20.73a3.052,3.052,0,0,0-4.238.747l-.32.457a3.052,3.052,0,0,0,.747,4.238l15.2,10.64a3.052,3.052,0,0,0,4.238-.747l.32-.457A3.052,3.052,0,0,0,60.245,31.37Z" fill="#af6c6c"/>
            <path id="Trazado_125860" data-name="Trazado 125860" d="M56.434,36.813l-15.2-10.64A3.052,3.052,0,0,0,37,26.92l-.32.457a3.052,3.052,0,0,0,.747,4.238l15.2,10.64a3.052,3.052,0,0,0,4.238-.747l.32-.457A3.052,3.052,0,0,0,56.434,36.813Z" fill="#af6c6c"/>
            <path id="Trazado_125861" data-name="Trazado 125861" d="M52.622,42.256l-15.2-10.64a3.052,3.052,0,0,0-4.238.747l-.32.457a3.052,3.052,0,0,0,.747,4.238l15.2,10.64a3.052,3.052,0,0,0,4.238-.747l.32-.457A3.052,3.052,0,0,0,52.622,42.256Z" fill="#af6c6c"/>
            <path id="Trazado_125862" data-name="Trazado 125862" d="M48.811,47.7l-15.2-10.64a3.052,3.052,0,0,0-4.238.747l-.32.457A3.052,3.052,0,0,0,29.8,42.5L45,53.142a3.052,3.052,0,0,0,4.238-.747l.32-.457A3.052,3.052,0,0,0,48.811,47.7Z" fill="#af6c6c"/>
            <path id="Trazado_125863" data-name="Trazado 125863" d="M45,53.142,29.8,42.5a3.052,3.052,0,0,0-4.238.747l-.32.457a3.052,3.052,0,0,0,.747,4.238l15.2,10.64a3.052,3.052,0,0,0,4.238-.747l.32-.457A3.052,3.052,0,0,0,45,53.142Z" fill="#af6c6c"/>
            <path id="Trazado_125864" data-name="Trazado 125864" d="M41.188,58.585l-15.2-10.64a3.052,3.052,0,0,0-4.238.747l-.32.457a3.052,3.052,0,0,0,.747,4.238l15.2,10.64a3.052,3.052,0,0,0,4.238-.747l.32-.457A3.052,3.052,0,0,0,41.188,58.585Z" fill="#af6c6c"/>
            <path id="Trazado_125865" data-name="Trazado 125865" d="M37.377,64.028l-15.2-10.64a3.052,3.052,0,0,0-4.238.747l-.32.457a3.052,3.052,0,0,0,.747,4.238l15.2,10.64a3.052,3.052,0,0,0,4.238-.747l.32-.457A3.052,3.052,0,0,0,37.377,64.028Z" fill="#af6c6c"/>
          </g>
          <g id="Grupo_176250" data-name="Grupo 176250">
            <path id="Trazado_125866" data-name="Trazado 125866" d="M61.665,16.14l-2.79-1.954a3.052,3.052,0,0,0-4.238.747l-.32.457a3.052,3.052,0,0,0,.747,4.238l2.79,1.954a3.052,3.052,0,0,0,4.238-.747l.32-.457A3.052,3.052,0,0,0,61.665,16.14Z" fill="#bb8080"/>
            <path id="Trazado_125867" data-name="Trazado 125867" d="M57.854,21.583l-2.79-1.954a3.052,3.052,0,0,0-4.238.747l-.32.457a3.052,3.052,0,0,0,.747,4.238l2.79,1.954a3.052,3.052,0,0,0,4.238-.747l.32-.457A3.052,3.052,0,0,0,57.854,21.583Z" fill="#bb8080"/>
            <path id="Trazado_125868" data-name="Trazado 125868" d="M54.042,27.027l-2.79-1.954a3.052,3.052,0,0,0-4.238.747l-.32.457a3.052,3.052,0,0,0,.747,4.238l2.79,1.954a3.052,3.052,0,0,0,4.238-.747l.32-.457A3.052,3.052,0,0,0,54.042,27.027Z" fill="#bb8080"/>
            <path id="Trazado_125869" data-name="Trazado 125869" d="M50.231,32.47l-2.79-1.954a3.052,3.052,0,0,0-4.238.747l-.32.457a3.052,3.052,0,0,0,.747,4.238l2.79,1.954a3.052,3.052,0,0,0,4.238-.747l.32-.457A3.052,3.052,0,0,0,50.231,32.47Z" fill="#bb8080"/>
            <path id="Trazado_125870" data-name="Trazado 125870" d="M46.42,37.913l-2.79-1.954a3.052,3.052,0,0,0-4.238.747l-.32.457a3.052,3.052,0,0,0,.747,4.238l2.79,1.954a3.052,3.052,0,0,0,4.238-.747l.32-.457A3.052,3.052,0,0,0,46.42,37.913Z" fill="#bb8080"/>
            <path id="Trazado_125871" data-name="Trazado 125871" d="M42.608,43.356,39.818,41.4a3.052,3.052,0,0,0-4.238.747l-.32.457a3.052,3.052,0,0,0,.747,4.238L38.8,48.8a3.052,3.052,0,0,0,4.238-.747l.32-.457A3.052,3.052,0,0,0,42.608,43.356Z" fill="#bb8080"/>
            <path id="Trazado_125872" data-name="Trazado 125872" d="M38.8,48.8l-2.79-1.954a3.052,3.052,0,0,0-4.238.747l-.32.457a3.052,3.052,0,0,0,.747,4.238l2.79,1.954a3.052,3.052,0,0,0,4.238-.747l.32-.457A3.052,3.052,0,0,0,38.8,48.8Z" fill="#bb8080"/>
            <path id="Trazado_125873" data-name="Trazado 125873" d="M34.986,54.242,32.2,52.288a3.052,3.052,0,0,0-4.238.747l-.32.457a3.052,3.052,0,0,0,.747,4.238l2.79,1.954a3.052,3.052,0,0,0,4.238-.747l.32-.457A3.052,3.052,0,0,0,34.986,54.242Z" fill="#bb8080"/>
            <path id="Trazado_125874" data-name="Trazado 125874" d="M31.174,59.685l-2.79-1.954a3.052,3.052,0,0,0-4.238.747l-.32.457a3.052,3.052,0,0,0,.747,4.238l2.79,1.954a3.052,3.052,0,0,0,4.238-.747l.32-.457A3.052,3.052,0,0,0,31.174,59.685Z" fill="#bb8080"/>
            <path id="Trazado_125875" data-name="Trazado 125875" d="M27.363,65.128l-2.79-1.954a3.052,3.052,0,0,0-4.238.747l-.32.457a3.052,3.052,0,0,0,.747,4.238l2.79,1.954a3.052,3.052,0,0,0,4.238-.747l.32-.457A3.052,3.052,0,0,0,27.363,65.128Z" fill="#bb8080"/>
          </g>
        </g>
        <g id="Grupo_176252" data-name="Grupo 176252">
          <path id="Trazado_125876" data-name="Trazado 125876" d="M58.042,8.432a12.759,12.759,0,0,1,1.275,1.115c.217.2.447.422.695.649a1.2,1.2,0,1,0,1.622-1.771C61.4,8.208,61.175,8,60.966,7.8a14.287,14.287,0,0,0-1.547-1.337,5.506,5.506,0,0,0-6.583.047c-8.7,5.535-20.038,16.431-31.23,23.7C14.89,34.581,11.321,41.392,11,50.46a50.432,50.432,0,0,0,5.563,23.51,4.237,4.237,0,0,0,3.259,2.282C36,78.252,55.4,73.018,59.21,56.546c3-12.978,9.367-27.4,11.593-37.453.95-4.291-1.592-6.08-3.913-7.158-.309-.144-.614-.294-.931-.46a1.2,1.2,0,0,0-1.11,2.129c.35.182.686.348,1.029.508,2.1.975,3.132,1.975,2.581,4.462-.542,2.447-1.347,5.19-2.293,8.121a4.217,4.217,0,0,0-1.473-1.825l-3.073-2.152a4.216,4.216,0,0,0,1.4-1.267l.32-.457A4.249,4.249,0,0,0,62.3,15.083l-2.79-1.953A4.249,4.249,0,0,0,53.6,14.172l-.32.457a4.209,4.209,0,0,0-.711,1.751L49.5,14.23a4.218,4.218,0,0,0-2.218-.76c2.431-1.891,4.733-3.587,6.846-4.932a3.144,3.144,0,0,1,3.916-.106ZM44.31,21.64l3.072,2.151a4.211,4.211,0,0,0-1.4,1.268l-.32.457a4.218,4.218,0,0,0-.712,1.751l-3.072-2.151a1.845,1.845,0,0,1-.453-2.566l.32-.457a1.851,1.851,0,0,1,2.566-.453ZM28.569,54.108l.32-.457a1.85,1.85,0,0,1,2.566-.453l2.791,1.954a1.845,1.845,0,0,1,.451,2.566l-.32.457a1.845,1.845,0,0,1-2.566.453l-2.791-1.954a1.85,1.85,0,0,1-.452-2.566Zm-1.647-1.834-.32.457a4.211,4.211,0,0,0-.712,1.751l-3.072-2.151a1.85,1.85,0,0,1-.452-2.567l.32-.457a1.845,1.845,0,0,1,2.565-.453l3.073,2.152a4.209,4.209,0,0,0-1.4,1.268Zm5.909-1.043a1.845,1.845,0,0,1-.451-2.566l.32-.457a1.85,1.85,0,0,1,2.566-.453l2.79,1.954a1.845,1.845,0,0,1,.453,2.566l-.32.457a1.852,1.852,0,0,1-2.567.452l-2.791-1.954Zm9.037-6.965a1.85,1.85,0,0,1,.453,2.566l-.32.457a1.845,1.845,0,0,1-2.566.453l-2.79-1.954a1.845,1.845,0,0,1-.453-2.566l.32-.457a1.85,1.85,0,0,1,2.565-.453ZM40,37.779l.32-.457a1.845,1.845,0,0,1,2.566-.453l2.791,1.955a1.845,1.845,0,0,1,.452,2.566l-.32.457a1.845,1.845,0,0,1-2.565.454l-2.792-1.955A1.851,1.851,0,0,1,40,37.779Zm.153,16.331.32-.457a4.218,4.218,0,0,0,.712-1.751l3.072,2.151a1.845,1.845,0,0,1,.452,2.566l-.32.457a1.845,1.845,0,0,1-2.566.453l-3.073-2.152A4.207,4.207,0,0,0,40.156,54.11Zm2.408-4.177a4.216,4.216,0,0,0,1.4-1.267l.32-.457A4.211,4.211,0,0,0,45,46.458l3.072,2.151a1.845,1.845,0,0,1,.453,2.567l-.32.457a1.851,1.851,0,0,1-2.566.453Zm3.811-5.443a4.218,4.218,0,0,0,1.4-1.267l.32-.457a4.216,4.216,0,0,0,.712-1.751l3.073,2.152a1.845,1.845,0,0,1,.451,2.566l-.32.457a1.845,1.845,0,0,1-2.566.453ZM49.623,36.4a1.845,1.845,0,0,1-2.567.453L44.266,34.9a1.852,1.852,0,0,1-.452-2.566l.32-.457a1.844,1.844,0,0,1,2.566-.453l2.792,1.955a1.845,1.845,0,0,1,.451,2.565Zm-7.456-5.9-.32.457a4.212,4.212,0,0,0-.712,1.751l-3.072-2.151a1.85,1.85,0,0,1-.452-2.566l.32-.457a1.85,1.85,0,0,1,2.566-.453l3.072,2.151A4.217,4.217,0,0,0,42.168,30.5Zm-2.409,4.175a4.216,4.216,0,0,0-1.4,1.268l-.32.457a4.209,4.209,0,0,0-.711,1.751L34.252,36a1.845,1.845,0,0,1-.451-2.566l.32-.457a1.845,1.845,0,0,1,2.563-.455ZM35.947,40.12a4.217,4.217,0,0,0-1.4,1.268l-.32.457a4.216,4.216,0,0,0-.712,1.751l-3.072-2.151a1.845,1.845,0,0,1-.452-2.566l.32-.457a1.845,1.845,0,0,1,2.567-.453Zm-3.811,5.444a4.211,4.211,0,0,0-1.4,1.268l-.32.457a4.217,4.217,0,0,0-.712,1.751L26.63,46.888a1.852,1.852,0,0,1-.452-2.567l.32-.457a1.851,1.851,0,0,1,2.566-.452Zm-7.605-3.076-.32.457A4.212,4.212,0,0,0,23.5,44.7l-1.91-1.338a1.845,1.845,0,0,1-.453-2.566l.32-.457a1.851,1.851,0,0,1,2.566-.453l1.91,1.337A4.207,4.207,0,0,0,24.531,42.488Zm-2.409,4.175a4.221,4.221,0,0,0-1.4,1.268l-.32.457a4.211,4.211,0,0,0-.712,1.751L17.778,48.8a1.85,1.85,0,0,1-.452-2.566l.32-.457a1.85,1.85,0,0,1,2.566-.453Zm-3.247,8.088a1.845,1.845,0,0,1,2.566-.453l3.073,2.152a4.22,4.22,0,0,0-1.4,1.268l-.32.457a4.215,4.215,0,0,0-.712,1.751l-3.072-2.151a1.845,1.845,0,0,1-.453-2.567Zm2.392,9.786a1.85,1.85,0,0,1,2.566-.453l2.79,1.954a1.852,1.852,0,0,1,.453,2.567l-.32.457a1.845,1.845,0,0,1-2.566.453L21.4,67.561a1.845,1.845,0,0,1-.453-2.566Zm3.943-2.419a1.845,1.845,0,0,1-.452-2.567l.32-.457a1.845,1.845,0,0,1,2.565-.454L30.434,60.6a1.845,1.845,0,0,1,.452,2.567l-.32.457A1.845,1.845,0,0,1,28,64.072L25.21,62.118ZM32.534,65l.32-.457a4.215,4.215,0,0,0,.712-1.751l3.072,2.151a1.851,1.851,0,0,1,.452,2.566l-.32.457a1.85,1.85,0,0,1-2.566.453L31.13,66.263A4.218,4.218,0,0,0,32.534,65Zm2.409-4.175a4.209,4.209,0,0,0,1.4-1.268l.32-.457a4.216,4.216,0,0,0,.712-1.751L40.448,59.5a1.85,1.85,0,0,1,.453,2.566l-.32.457a1.85,1.85,0,0,1-2.567.453ZM42.548,63.9l.32-.457a4.209,4.209,0,0,0,.711-1.751l1.91,1.337a1.845,1.845,0,0,1,.453,2.567l-.32.457a1.845,1.845,0,0,1-2.567.453l-1.911-1.338a4.216,4.216,0,0,0,1.4-1.267Zm2.408-4.176a4.218,4.218,0,0,0,1.4-1.267l.32-.457a4.217,4.217,0,0,0,.712-1.751l1.91,1.337a1.852,1.852,0,0,1,.453,2.567l-.32.457a1.852,1.852,0,0,1-2.567.453Zm3.811-5.443a4.218,4.218,0,0,0,1.4-1.267l.32-.457A4.213,4.213,0,0,0,51.2,50.8l1.91,1.338a1.845,1.845,0,0,1,.453,2.566l-.321.457a1.85,1.85,0,0,1-2.566.453Zm3.811-5.443a4.216,4.216,0,0,0,1.4-1.267l.32-.457a4.219,4.219,0,0,0,.712-1.751l1.91,1.337a1.845,1.845,0,0,1,.453,2.567l-.32.457a1.845,1.845,0,0,1-2.566.453Zm3.248-8.087a1.85,1.85,0,0,1-2.567.453l-3.072-2.151a4.209,4.209,0,0,0,1.4-1.268l.32-.457a4.218,4.218,0,0,0,.712-1.751l3.072,2.151a1.85,1.85,0,0,1,.453,2.566ZM54,33.6a4.209,4.209,0,0,0,1.4-1.268l.32-.457a4.218,4.218,0,0,0,.712-1.751l3.072,2.151a1.845,1.845,0,0,1,.453,2.566l-.32.457a1.85,1.85,0,0,1-2.566.453Zm-.244-3.1-.32.457a1.85,1.85,0,0,1-2.566.452l-2.79-1.953a1.845,1.845,0,0,1-.452-2.567l.32-.457a1.85,1.85,0,0,1,2.566-.453l2.79,1.954a1.845,1.845,0,0,1,.453,2.566ZM42.615,17.187a4.256,4.256,0,0,0-.036,1.777l-.063.01a4.213,4.213,0,0,0-2.74,1.741l-.32.457a4.231,4.231,0,0,0-.688,3.235l-.063.009a4.214,4.214,0,0,0-2.74,1.742l-.32.457a4.212,4.212,0,0,0-.712,1.752l-1.91-1.338a4.208,4.208,0,0,0-1.814-.72c3.893-2.982,7.7-6.119,11.405-9.122ZM28.759,29.906l.32-.457A1.85,1.85,0,0,1,31.646,29l1.91,1.337a4.22,4.22,0,0,0-1.4,1.268l-.32.457a4.216,4.216,0,0,0-.712,1.751l-1.91-1.337a1.85,1.85,0,0,1-.452-2.566Zm-.925,4.533,1.91,1.337a4.218,4.218,0,0,0-1.4,1.268l-.32.457a4.216,4.216,0,0,0-.712,1.751L25.4,37.916a1.845,1.845,0,0,1-.453-2.567l.32-.457A1.845,1.845,0,0,1,27.835,34.439ZM56.871,56.005c-1.618,7-6.313,12.114-13.956,15.208a47.927,47.927,0,0,1-22.8,2.656,1.839,1.839,0,0,1-1.415-.991,47.929,47.929,0,0,1-5.3-22.333c.293-8.24,3.5-14.4,9.517-18.316q1.608-1.045,3.207-2.173a4.255,4.255,0,0,0-.03,1.642c0,.021.009.041.013.062a4.231,4.231,0,0,0-2.8,1.753l-.32.457a4.231,4.231,0,0,0-.688,3.235l-.063.01a4.213,4.213,0,0,0-2.74,1.741l-.32.457a4.23,4.23,0,0,0-.688,3.235l-.063.009a4.214,4.214,0,0,0-2.74,1.742l-.32.457a4.252,4.252,0,0,0,1.042,5.91l1.91,1.337a4.22,4.22,0,0,0-1.4,1.268l-.32.457a4.249,4.249,0,0,0,1.042,5.911L20.7,61.892a4.209,4.209,0,0,0-1.4,1.267l-.32.457a4.249,4.249,0,0,0,1.042,5.91l2.79,1.954a4.249,4.249,0,0,0,5.91-1.042l.32-.457a4.212,4.212,0,0,0,.712-1.751l3.072,2.151a4.249,4.249,0,0,0,5.91-1.042l.32-.457a4.211,4.211,0,0,0,.712-1.751l1.91,1.337a4.249,4.249,0,0,0,5.911-1.042l.32-.457a4.23,4.23,0,0,0,.688-3.236l.063-.008a4.214,4.214,0,0,0,2.74-1.742l.32-.457a4.209,4.209,0,0,0,.686-3.236,4.2,4.2,0,0,0,2.8-1.75l.32-.457a4.231,4.231,0,0,0,.688-3.233,4.259,4.259,0,0,0,1.6-.6q-.51,1.889-.946,3.76ZM59.6,46.186a4.216,4.216,0,0,0-1.3-1.458l-1.91-1.337a4.211,4.211,0,0,0,1.4-1.268l.32-.457a4.213,4.213,0,0,0,.7-3.171c0-.022-.009-.043-.013-.065l.065-.008a4.214,4.214,0,0,0,2.74-1.742l.32-.457a4.231,4.231,0,0,0,.688-3.233,4.261,4.261,0,0,0,1.657-.641c-1.572,4.566-3.2,9.171-4.672,13.837Zm3.719-19.35a1.845,1.845,0,0,1,.453,2.567l-.32.457a1.845,1.845,0,0,1-2.566.453l-3.073-2.152a4.218,4.218,0,0,0,1.4-1.267l.32-.457a4.211,4.211,0,0,0,.712-1.751Zm-8.068-10.83.32-.457a1.845,1.845,0,0,1,2.567-.453l2.79,1.953a1.845,1.845,0,0,1,.453,2.567l-.32.457a1.845,1.845,0,0,1-2.566.453L55.7,18.573a1.851,1.851,0,0,1-.453-2.566Zm-3.491,4.986a1.845,1.845,0,0,1,2.566-.453l2.791,1.954a1.852,1.852,0,0,1,.452,2.567l-.32.457a1.845,1.845,0,0,1-2.566.453l-2.79-1.954a1.845,1.845,0,0,1-.453-2.567Zm-3.636-4.8,3.071,2.151a4.221,4.221,0,0,0-1.4,1.268l-.32.457a4.216,4.216,0,0,0-.712,1.751l-3.072-2.151a1.845,1.845,0,0,1-.453-2.567l.32-.457a1.845,1.845,0,0,1,2.567-.453Z"/>
          <path id="Trazado_125877" data-name="Trazado 125877" d="M69.153,7.073A15.525,15.525,0,0,1,64.7,3.952c-2.584-2.59-7.934-6.288-14.726-1.964C40.885,7.772,29.6,18.634,18.7,25.719,1.861,36.661,3.268,59.677,11.8,76.394a9.583,9.583,0,0,0,7.368,5.159c19.041,2.354,40.781-4.437,45.26-23.811.716-3.1,1.673-6.474,3.013-10.633a1.2,1.2,0,1,0-2.285-.736C63.8,50.6,62.823,54.038,62.091,57.2a25.026,25.026,0,0,1-6.353,11.878C47.114,78.064,31.834,80.7,19.466,79.17A7.185,7.185,0,0,1,13.941,75.3C8.28,64.213,5.521,48.95,11.018,37.765a25.029,25.029,0,0,1,8.989-10.032C30.984,20.6,42.39,9.66,51.259,4.014,56.368.761,60.462,3.107,63,5.648a17.915,17.915,0,0,0,5.144,3.6C71.4,10.763,75,13.807,73.691,19.72c-1.356,6.127-4.174,13.759-6.755,21.315a1.2,1.2,0,1,0,2.272.776c2.611-7.639,5.444-15.323,6.827-21.572,1.74-7.862-3.565-11.624-6.882-13.166Z"/>
        </g>
      </g>
    </g>
  </g>
</svg>
