<svg xmlns="http://www.w3.org/2000/svg" xmlns:xlink="http://www.w3.org/1999/xlink" width="130" height="120" viewBox="0 0 130 120">
  <defs>
    <clipPath id="clip-path">
      <rect id="Rectángulo_35864" data-name="Rectángulo 35864" width="78" height="82" transform="translate(1180 1799)" fill="#fd7f23"/>
    </clipPath>
  </defs>
  <g id="Grupo_176255" data-name="Grupo 176255" transform="translate(-1154 -1780)">
    <rect id="Rectángulo_35865" data-name="Rectángulo 35865" width="130" height="120" transform="translate(1154 1780)" fill="none"/>
    <g id="Enmascarar_grupo_277" data-name="Enmascarar grupo 277" clip-path="url(#clip-path)">
      <g id="cuenco" transform="translate(1180 1801)">
        <path id="Trazado_125964" data-name="Trazado 125964" d="M54.687,10.75a4.884,4.884,0,1,0-9.18-3.341c-.043.117-.079.236-.112.354l-8.764,27.6,6.885,2.506,11.03-26.779C54.6,10.981,54.644,10.867,54.687,10.75Z" fill="#e1d8dc"/>
        <path id="Trazado_125965" data-name="Trazado 125965" d="M51.817,4.508a4.863,4.863,0,0,1,.02,3.391c-.043.118-.091.231-.142.343L40.665,35.021,37.146,33.74l-.516,1.625,6.885,2.506,11.03-26.779c.051-.112.1-.226.142-.343A4.884,4.884,0,0,0,51.817,4.508Z" fill="#d2c5ca"/>
        <path id="Trazado_125966" data-name="Trazado 125966" d="M39,71.356A37.855,37.855,0,0,0,76.855,33.5H1.145A37.855,37.855,0,0,0,39,71.356Z" fill="#ffbc68"/>
        <path id="Trazado_125967" data-name="Trazado 125967" d="M6.029,33.5H1.145A37.855,37.855,0,0,0,39,71.355c.821,0,1.634-.029,2.442-.081A37.855,37.855,0,0,1,6.029,33.5Z" fill="#ffa535"/>
        <rect id="Rectángulo_35903" data-name="Rectángulo 35903" width="39.076" height="7.327" transform="translate(19.462 66.471)" fill="#ffbc68"/>
        <rect id="Rectángulo_35904" data-name="Rectángulo 35904" width="4.885" height="7.327" transform="translate(19.462 66.471)" fill="#ffa535"/>
        <circle id="Elipse_4012" data-name="Elipse 4012" cx="1.145" cy="1.145" r="1.145" transform="translate(48.952 7.934)"/>
        <path id="Trazado_125968" data-name="Trazado 125968" d="M76.855,32.356H68.562a1.145,1.145,0,0,0,0,2.29h7.131A36.833,36.833,0,0,1,57.307,65.326H20.656a1.137,1.137,0,0,0-.153-.109,36.884,36.884,0,0,1-18.2-30.572H62.863a1.145,1.145,0,1,0,0-2.29H47.025L55.6,11.546A6.029,6.029,0,1,0,44.3,7.433L36.385,32.355H1.145A1.145,1.145,0,0,0,0,33.5,38.975,38.975,0,0,0,18.317,66.569V73.8a1.145,1.145,0,0,0,1.145,1.145H58.538A1.145,1.145,0,0,0,59.683,73.8V66.568A38.974,38.974,0,0,0,78,33.5,1.145,1.145,0,0,0,76.855,32.356ZM46.486,8.109a3.863,3.863,0,0,1,1.687-2.237,3.74,3.74,0,0,1,5.658,3.419,4.147,4.147,0,0,1-.344,1.367l-8.938,21.7H38.787ZM57.393,72.653H20.607V67.616H57.393v5.037Z"/>
        <path id="Trazado_125969" data-name="Trazado 125969" d="M15.869,23.933A80,80,0,0,0,29.733,25.94l-2.4,1.751a1.145,1.145,0,0,0,1.35,1.849l4.808-3.511a1.156,1.156,0,0,0,.159-1.709L30.065,20.5A1.145,1.145,0,0,0,28.4,22.073l1.488,1.583a77.653,77.653,0,0,1-13.441-1.939c-4.576-1.184-5.605-2.389-5.605-2.717,0-.415,1.409-1.892,7.672-3.2A105.577,105.577,0,0,1,39,14.038a1.145,1.145,0,1,0,0-2.29,107.893,107.893,0,0,0-20.957,1.812c-6.389,1.331-9.5,3.11-9.5,5.438C8.548,21.044,10.943,22.657,15.869,23.933Z"/>
        <path id="Trazado_125970" data-name="Trazado 125970" d="M60.455,19.281a1.145,1.145,0,1,0,2.118-.868l-.856-2.088c4.412,1.164,5.444,2.335,5.444,2.675,0,.494-2.125,2.622-12.522,4.01a1.145,1.145,0,1,0,.3,2.269A48.879,48.879,0,0,0,65,23.047c3-1.117,4.454-2.441,4.454-4.048,0-1.865-2-3.375-6.087-4.591l2.174-.558a1.145,1.145,0,1,0-.569-2.218l-5.648,1.45a1.156,1.156,0,0,0-.775,1.543Z"/>
      </g>
    </g>
  </g>
</svg>
