<svg xmlns="http://www.w3.org/2000/svg" xmlns:xlink="http://www.w3.org/1999/xlink" width="130" height="120" viewBox="0 0 130 120">
  <defs>
    <clipPath id="clip-path">
      <rect id="Rect치ngulo_35866" data-name="Rect치ngulo 35866" width="78" height="82" transform="translate(-129 -9668)" fill="#fd7f23"/>
    </clipPath>
  </defs>
  <g id="Grupo_176349" data-name="Grupo 176349" transform="translate(155 9687)">
    <rect id="Rect치ngulo_35867" data-name="Rect치ngulo 35867" width="130" height="120" transform="translate(-155 -9687)" fill="none"/>
    <g id="Enmascarar_grupo_278" data-name="Enmascarar grupo 278" clip-path="url(#clip-path)">
      <g id="cacao_2_" data-name="cacao (2)" transform="translate(-129 -9666)">
        <path id="Trazado_125971" data-name="Trazado 125971" d="M4.571,48.75S4.37,41.064,15.7,37.187,29.756,19.681,40.755,19.806,56.8,27.363,59.233,31.427s6.772,6.675,10.4,9.125,3,8.2,3,8.2H4.571Z" fill="#ab695d"/>
        <path id="Trazado_125972" data-name="Trazado 125972" d="M69.629,40.552c-3.623-2.45-7.958-5.061-10.4-9.125s-7.479-11.5-18.478-11.622a12.241,12.241,0,0,0-2.113.157c9.31,1.1,13.774,7.717,16.021,11.465,2.437,4.064,6.772,6.675,10.4,9.125s3,8.2,3,8.2h4.57s.625-5.748-3-8.2Z" fill="#935b50"/>
        <path id="Trazado_125973" data-name="Trazado 125973" d="M72.4,52.711H5.6A3.523,3.523,0,0,1,2.4,50.66L1.219,48.094a.826.826,0,0,1,.751-1.172H76.03a.826.826,0,0,1,.751,1.172L75.6,50.66A3.523,3.523,0,0,1,72.4,52.711Z" fill="#eef5f6"/>
        <path id="Trazado_125974" data-name="Trazado 125974" d="M76.03,46.922H71.46a.826.826,0,0,1,.751,1.172L71.03,50.66a3.524,3.524,0,0,1-3.2,2.051H72.4a3.523,3.523,0,0,0,3.2-2.051l1.181-2.566A.826.826,0,0,0,76.03,46.922Z" fill="#deecf1"/>
        <path id="Trazado_125975" data-name="Trazado 125975" d="M61.62,58.2H16.38a4.088,4.088,0,0,1-2.592-.927L8.227,52.711H69.773l-5.561,4.558A4.088,4.088,0,0,1,61.62,58.2Z" fill="#deecf1"/>
        <path id="Trazado_125976" data-name="Trazado 125976" d="M65.2,52.711l-5.561,4.558a4.089,4.089,0,0,1-2.592.927h4.57a4.088,4.088,0,0,0,2.592-.927l5.561-4.558Z" fill="#cbe5e8"/>
        <path id="Trazado_125977" data-name="Trazado 125977" d="M77.688,46.686a1.96,1.96,0,0,0-1.658-.907H73.675a8.681,8.681,0,0,0-4.555-6.944c-3.212-2.143-6.853-4.572-8.906-8-3.1-5.168-8.486-12.052-19.445-12.176-5.735-.083-9.544,3.476-12.57,6.8a1.143,1.143,0,1,0,1.686,1.543c3.457-3.778,6.482-6.1,10.858-6.06,9.814.112,14.694,6.369,17.511,11.067,2.317,3.864,6.185,6.445,9.6,8.722a6.326,6.326,0,0,1,3.512,5.043H60.754a1.143,1.143,0,1,0,0,2.285H75.536l-.974,2.118A2.388,2.388,0,0,1,72.4,51.569H5.6a2.388,2.388,0,0,1-2.163-1.386l-.974-2.118h52.79a1.143,1.143,0,1,0,0-2.285H6.478c1.044-2.27,3.554-5.445,9.595-7.511,4.489-1.536,7.7-4.548,10.245-7.291a1.143,1.143,0,1,0-1.675-1.555c-2.472,2.663-5.31,5.316-9.309,6.684C7.7,38.719,4.978,43.078,4.012,45.78H1.97A1.969,1.969,0,0,0,.181,48.571l1.181,2.566A4.679,4.679,0,0,0,5.6,53.854H7.818l5.245,4.3a5.245,5.245,0,0,0,3.316,1.185H61.62a5.246,5.246,0,0,0,3.316-1.185l5.245-4.3H72.4a4.679,4.679,0,0,0,4.239-2.716l1.181-2.566a1.962,1.962,0,0,0-.131-1.885Zm-14.2,9.7a2.955,2.955,0,0,1-1.868.668H16.38a2.954,2.954,0,0,1-1.868-.668l-3.089-2.531H66.577Z"/>
      </g>
    </g>
  </g>
</svg>
