<svg xmlns="http://www.w3.org/2000/svg" xmlns:xlink="http://www.w3.org/1999/xlink" width="130" height="120" viewBox="0 0 130 120">
  <defs>
    <clipPath id="clip-path">
      <rect id="Rect치ngulo_35874" data-name="Rect치ngulo 35874" width="78" height="82" transform="translate(715 -9668)" fill="#fd7f23"/>
    </clipPath>
  </defs>
  <g id="Grupo_176350" data-name="Grupo 176350" transform="translate(-689 9687)">
    <rect id="Rect치ngulo_35875" data-name="Rect치ngulo 35875" width="130" height="120" transform="translate(689 -9687)" fill="none"/>
    <g id="Enmascarar_grupo_279" data-name="Enmascarar grupo 279" clip-path="url(#clip-path)">
      <g id="cacao_3_" data-name="cacao (3)" transform="translate(712.992 -9668)">
        <g id="Grupo_176357" data-name="Grupo 176357">
          <g id="Grupo_176354" data-name="Grupo 176354">
            <path id="Trazado_125978" data-name="Trazado 125978" d="M67.57,10.426H14.879A210.506,210.506,0,0,0,11.4,45.532a210.506,210.506,0,0,0,3.475,35.106H67.57s3.043-20.932,3.043-35.106S67.57,10.426,67.57,10.426Z" fill="#f8784d"/>
            <path id="Trazado_125979" data-name="Trazado 125979" d="M67.57,82H14.879a1.372,1.372,0,0,1-1.345-1.105,213.563,213.563,0,0,1-3.507-35.362A213.563,213.563,0,0,1,13.533,10.17a1.372,1.372,0,0,1,1.345-1.105H67.57a1.366,1.366,0,0,1,1.361,1.169c.032.208,3.059,21.189,3.059,35.3s-3.027,35.09-3.059,35.3A1.378,1.378,0,0,1,67.57,82ZM16.016,79.261H66.385c.625-4.6,2.867-21.733,2.867-33.729S67.009,16.416,66.385,11.8H16.016a209.636,209.636,0,0,0-3.251,33.729A207.953,207.953,0,0,0,16.016,79.261Z" fill="#212121"/>
          </g>
          <g id="Grupo_176355" data-name="Grupo 176355">
            <path id="Trazado_125980" data-name="Trazado 125980" d="M14.863,1.377H67.426v9.049H14.862Z" fill="#4bb55e"/>
            <path id="Trazado_125981" data-name="Trazado 125981" d="M67.442,11.8H14.863a1.377,1.377,0,0,1-1.377-1.377V1.377A1.377,1.377,0,0,1,14.863,0H67.426A1.377,1.377,0,0,1,68.8,1.377v9.049A1.374,1.374,0,0,1,67.442,11.8ZM16.24,9.049H66.064V2.739H16.24Z" fill="#212121"/>
          </g>
          <g id="Grupo_176356" data-name="Grupo 176356">
            <path id="Trazado_125982" data-name="Trazado 125982" d="M20.788,73.768l-1.009-6.486" fill="#f8784d"/>
            <path id="Trazado_125983" data-name="Trazado 125983" d="M20.788,75.129a1.388,1.388,0,0,1-1.361-1.153L18.4,67.506a1.37,1.37,0,0,1,2.707-.432l1.025,6.47A1.377,1.377,0,0,1,21,75.113a.846.846,0,0,1-.208.016Z" fill="#fff"/>
          </g>
        </g>
        <g id="Grupo_176358" data-name="Grupo 176358">
          <circle id="Elipse_4013" data-name="Elipse 4013" cx="22.774" cy="22.774" r="22.774" transform="translate(18.226 20.484)" fill="#fff"/>
          <path id="Trazado_125984" data-name="Trazado 125984" d="M41,67.41A24.152,24.152,0,1,1,65.152,43.258,24.179,24.179,0,0,1,41,67.41Zm0-45.548a21.4,21.4,0,1,0,21.4,21.4A21.414,21.414,0,0,0,41,21.861Z" fill="#212121"/>
        </g>
        <g id="Grupo_176365" data-name="Grupo 176365">
          <g id="Grupo_176364" data-name="Grupo 176364">
            <g id="Grupo_176359" data-name="Grupo 176359">
              <path id="Trazado_125985" data-name="Trazado 125985" d="M51.106,63.918a1.4,1.4,0,0,1-1.6-.032,9.689,9.689,0,0,0-2.739-1.345c-1.377-.416-3.571-1.2-6.871-2.579a20.53,20.53,0,0,1-9.818-8.7c-2.915-5.205-4.661-13.421-4.4-15.9A5.412,5.412,0,0,0,25,32.175l-.464-.833a3.1,3.1,0,0,1,1.185-4.212l3.956-2.21.625-.352,3.956-2.21a3.1,3.1,0,0,1,4.212,1.185l.464.833A5.4,5.4,0,0,0,41.3,26.6c2.242,1.089,8.344,6.871,11.259,12.076A20.557,20.557,0,0,1,54.838,51.6a72.021,72.021,0,0,1-1.393,7.207,9.735,9.735,0,0,0-.288,3.043,1.4,1.4,0,0,1-.817,1.377Z" fill="#ffd45a"/>
              <path id="Trazado_125986" data-name="Trazado 125986" d="M50.289,65.52a2.787,2.787,0,0,1-1.586-.512,8.05,8.05,0,0,0-2.354-1.153c-1.842-.561-4.2-1.457-7-2.627a21.808,21.808,0,0,1-10.506-9.321c-3.011-5.4-4.853-13.854-4.564-16.688a4.082,4.082,0,0,0-.5-2.37l-.464-.833a4.483,4.483,0,0,1,1.714-6.086l8.552-4.789a4.483,4.483,0,0,1,6.086,1.714l.464.833A3.935,3.935,0,0,0,41.9,25.353c2.579,1.249,8.809,7.223,11.852,12.62A21.915,21.915,0,0,1,56.2,51.795c-.464,3.011-.945,5.477-1.425,7.351a7.954,7.954,0,0,0-.24,2.611,2.77,2.77,0,0,1-1.521,2.675l-1.249.7a3.113,3.113,0,0,1-1.473.384ZM35.763,23.3a1.552,1.552,0,0,0-.833.224l-8.552,4.789a1.726,1.726,0,0,0-.657,2.354l.464.833a6.683,6.683,0,0,1,.833,3.988c-.224,2.178,1.425,10.074,4.244,15.1.016.016.016.032.032.048A19.421,19.421,0,0,0,40.423,58.7c3.4,1.425,5.541,2.162,6.743,2.546a10.914,10.914,0,0,1,3.123,1.537.016.016,0,0,1,.016.016.287.287,0,0,0,.128-.064l1.249-.7a.4.4,0,0,0,.112-.08v-.016a11.051,11.051,0,0,1,.32-3.475c.32-1.217.8-3.443,1.361-7.079a19.3,19.3,0,0,0-2.082-12c-.016-.016-.016-.032-.032-.048-2.819-5.029-8.68-10.554-10.65-11.515a6.766,6.766,0,0,1-2.963-2.8l-.464-.833a1.754,1.754,0,0,0-1.521-.881Z" fill="#212121"/>
            </g>
            <g id="Grupo_176360" data-name="Grupo 176360">
              <path id="Trazado_125987" data-name="Trazado 125987" d="M47.134,56.247a.851.851,0,0,1-.977-.016,5.463,5.463,0,0,0-1.682-.817c-.849-.256-2.178-.737-4.212-1.586A12.54,12.54,0,0,1,34.257,48.5c-1.778-3.187-2.851-8.216-2.691-9.737a3.451,3.451,0,0,0-.4-1.954l-.288-.513a1.891,1.891,0,0,1,.721-2.579l2.418-1.361.384-.208,2.418-1.361A1.891,1.891,0,0,1,39.4,31.5l.288.512a3.287,3.287,0,0,0,1.441,1.361c1.377.657,5.109,4.212,6.887,7.4a12.53,12.53,0,0,1,1.393,7.912c-.336,2.178-.625,3.555-.849,4.42a6.056,6.056,0,0,0-.176,1.858.873.873,0,0,1-.5.849Z" fill="#f8784d"/>
              <path id="Trazado_125988" data-name="Trazado 125988" d="M46.621,57.768a2.174,2.174,0,0,1-1.265-.416,5.051,5.051,0,0,0-1.281-.641c-1.137-.352-2.595-.9-4.34-1.634a14.01,14.01,0,0,1-6.695-5.942c-1.89-3.4-3.027-8.713-2.851-10.522a2.007,2.007,0,0,0-.24-1.137l-.288-.512a3.278,3.278,0,0,1,1.249-4.452l5.237-2.931A3.278,3.278,0,0,1,40.6,30.83l.288.512a1.951,1.951,0,0,0,.849.8c1.634.785,5.573,4.548,7.479,7.944a13.958,13.958,0,0,1,1.57,8.809c-.288,1.858-.577,3.4-.881,4.548a4.736,4.736,0,0,0-.128,1.425,2.2,2.2,0,0,1-1.2,2.13l-.769.432a2.338,2.338,0,0,1-1.185.336ZM37.749,31.919a.507.507,0,0,0-.256.064l-5.237,2.931a.529.529,0,0,0-.208.7l.288.513a4.606,4.606,0,0,1,.577,2.755,22.71,22.71,0,0,0,2.53,8.937c.016.016.016.032.032.048a11.331,11.331,0,0,0,5.317,4.677c2.066.865,3.347,1.313,4.084,1.537a7.317,7.317,0,0,1,1.794.833l.336-.192a7.442,7.442,0,0,1,.224-1.97c.192-.737.48-2.066.817-4.276a11.245,11.245,0,0,0-1.2-6.983c-.016-.016-.016-.032-.032-.048a22.529,22.529,0,0,0-6.294-6.823,4.7,4.7,0,0,1-2.05-1.938l-.288-.513a.486.486,0,0,0-.432-.256Z" fill="#212121"/>
            </g>
            <g id="Grupo_176361" data-name="Grupo 176361">
              <path id="Trazado_125989" data-name="Trazado 125989" d="M34.321,32.48l13.2,23.559" fill="#ffd45a"/>
              <path id="Trazado_125990" data-name="Trazado 125990" d="M47.518,57.416a1.386,1.386,0,0,1-1.2-.7L33.136,33.152a1.377,1.377,0,0,1,2.4-1.345L48.72,55.366a1.386,1.386,0,0,1-.529,1.874,1.505,1.505,0,0,1-.673.176Z" fill="#212121"/>
            </g>
            <g id="Grupo_176362" data-name="Grupo 176362">
              <path id="Trazado_125991" data-name="Trazado 125991" d="M44.908,37.22l-12.38,6.935" fill="#ffd45a"/>
              <path id="Trazado_125992" data-name="Trazado 125992" d="M32.528,45.532a1.377,1.377,0,0,1-.673-2.579l12.4-6.935a1.377,1.377,0,0,1,1.345,2.4L33.2,45.356a1.322,1.322,0,0,1-.673.176Z" fill="#212121"/>
            </g>
            <g id="Grupo_176363" data-name="Grupo 176363">
              <path id="Trazado_125993" data-name="Trazado 125993" d="M48.752,44.059,37.124,50.5" fill="#ffd45a"/>
              <path id="Trazado_125994" data-name="Trazado 125994" d="M37.124,51.875a1.377,1.377,0,0,1-.673-2.579l11.627-6.454a1.377,1.377,0,1,1,1.345,2.4L37.8,51.7a1.283,1.283,0,0,1-.673.176Z" fill="#212121"/>
            </g>
          </g>
        </g>
      </g>
    </g>
  </g>
</svg>
