<svg xmlns="http://www.w3.org/2000/svg" xmlns:xlink="http://www.w3.org/1999/xlink" width="130" height="120" viewBox="0 0 130 120">
  <defs>
    <clipPath id="clip-path">
      <rect id="Rect치ngulo_35872" data-name="Rect치ngulo 35872" width="78" height="82" transform="translate(504 -9668)" fill="#fd7f23"/>
    </clipPath>
  </defs>
  <g id="Grupo_176351" data-name="Grupo 176351" transform="translate(-478 9687)">
    <rect id="Rect치ngulo_35873" data-name="Rect치ngulo 35873" width="130" height="120" transform="translate(478 -9687)" fill="none"/>
    <g id="Enmascarar_grupo_280" data-name="Enmascarar grupo 280" clip-path="url(#clip-path)">
      <g id="barra-de-chocolate" transform="translate(504 -9666)">
        <path id="Trazado_125995" data-name="Trazado 125995" d="M29.617,76.085l-27.7-27.7a2.643,2.643,0,0,1,0-3.738L44.644,1.915a2.643,2.643,0,0,1,3.738,0l27.7,27.7a2.644,2.644,0,0,1,0,3.738l-42.73,42.73a2.644,2.644,0,0,1-3.738,0Zm0,0" fill="#935b45"/>
        <path id="Trazado_125996" data-name="Trazado 125996" d="M9.395,52.124,52.124,9.395a2.643,2.643,0,0,1,3.738,0l-7.48-7.48a2.642,2.642,0,0,0-3.738,0L1.915,44.644a2.643,2.643,0,0,0,0,3.738l7.48,7.48a2.643,2.643,0,0,1,0-3.738Zm0,0" fill="#774839"/>
        <path id="Trazado_125997" data-name="Trazado 125997" d="M47.471,9.418l7.495,7.495a1.354,1.354,0,0,1,0,1.914L47,26.792a1.353,1.353,0,0,1-1.914,0L37.591,19.3a1.355,1.355,0,0,1,0-1.915l7.965-7.965a1.354,1.354,0,0,1,1.914,0Zm0,0" fill="#b2785b"/>
        <path id="Trazado_125998" data-name="Trazado 125998" d="M47.471,9.418a1.354,1.354,0,0,0-1.914,0l-7.965,7.965a1.355,1.355,0,0,0,0,1.915l2.316,2.315,9.879-9.88Zm0,0" fill="#935b45"/>
        <path id="Trazado_125999" data-name="Trazado 125999" d="M61.087,23.034l7.495,7.495a1.354,1.354,0,0,1,0,1.914l-7.965,7.965a1.354,1.354,0,0,1-1.915,0l-7.494-7.494a1.354,1.354,0,0,1,0-1.915l7.965-7.965A1.354,1.354,0,0,1,61.087,23.034Zm0,0" fill="#b2785b"/>
        <path id="Trazado_126000" data-name="Trazado 126000" d="M33.384,23.5,40.879,31a1.355,1.355,0,0,1,0,1.915l-7.965,7.965a1.355,1.355,0,0,1-1.915,0l-7.494-7.495a1.353,1.353,0,0,1,0-1.914L31.47,23.5a1.353,1.353,0,0,1,1.914,0Zm0,0" fill="#b2785b"/>
        <path id="Trazado_126001" data-name="Trazado 126001" d="M33.384,23.5a1.353,1.353,0,0,0-1.914,0L23.505,31.47a1.353,1.353,0,0,0,0,1.914L25.82,35.7,35.7,25.82Zm0,0" fill="#935b45"/>
        <path id="Trazado_126002" data-name="Trazado 126002" d="M47,37.121,54.5,44.616a1.353,1.353,0,0,1,0,1.914L46.53,54.5a1.354,1.354,0,0,1-1.914,0L37.121,47a1.354,1.354,0,0,1,0-1.914l7.965-7.965A1.354,1.354,0,0,1,47,37.121Zm0,0" fill="#b2785b"/>
        <path id="Trazado_126003" data-name="Trazado 126003" d="M19.3,37.591l7.494,7.495a1.353,1.353,0,0,1,0,1.914l-7.965,7.965a1.353,1.353,0,0,1-1.914,0L9.418,47.471a1.355,1.355,0,0,1,0-1.915l7.965-7.965a1.355,1.355,0,0,1,1.915,0Zm0,0" fill="#b2785b"/>
        <path id="Trazado_126004" data-name="Trazado 126004" d="M19.3,37.591a1.355,1.355,0,0,0-1.915,0L9.418,45.556a1.355,1.355,0,0,0,0,1.915l2.315,2.315,9.88-9.88Zm0,0" fill="#935b45"/>
        <path id="Trazado_126005" data-name="Trazado 126005" d="M32.914,51.208,40.408,58.7a1.353,1.353,0,0,1,0,1.914l-7.965,7.965a1.354,1.354,0,0,1-1.914,0l-7.495-7.495a1.354,1.354,0,0,1,0-1.914L31,51.208A1.355,1.355,0,0,1,32.914,51.208Zm0,0" fill="#b2785b"/>
        <path id="Trazado_126006" data-name="Trazado 126006" d="M76.893,28.809l-27.7-27.7a3.791,3.791,0,0,0-5.354,0L1.107,43.837a3.791,3.791,0,0,0,0,5.354l27.7,27.7a3.789,3.789,0,0,0,5.354,0L67.971,43.085a1.143,1.143,0,0,0-1.616-1.616L32.547,75.277a1.5,1.5,0,0,1-2.123,0l-27.7-27.7a1.5,1.5,0,0,1,0-2.122L45.453,2.723a1.5,1.5,0,0,1,2.122,0l27.7,27.7a1.5,1.5,0,0,1,0,2.123l-5.906,5.906a1.142,1.142,0,0,0,1.616,1.616l5.906-5.906a3.79,3.79,0,0,0,0-5.354Zm0,0"/>
        <path id="Trazado_126007" data-name="Trazado 126007" d="M46.044,28.331a2.481,2.481,0,0,0,1.765-.731l7.965-7.965a2.5,2.5,0,0,0,0-3.531L48.279,8.61a2.5,2.5,0,0,0-3.53,0l-7.965,7.965a2.5,2.5,0,0,0,0,3.53L44.278,27.6A2.48,2.48,0,0,0,46.044,28.331ZM38.4,18.191l7.965-7.965a.211.211,0,0,1,.3,0l7.494,7.494a.211.211,0,0,1,0,.3l-7.965,7.965a.211.211,0,0,1-.3,0L38.4,18.49a.212.212,0,0,1,0-.3Zm0,0"/>
        <path id="Trazado_126008" data-name="Trazado 126008" d="M59.66,41.948a2.478,2.478,0,0,0,1.765-.731l7.965-7.965a2.5,2.5,0,0,0,0-3.531L61.9,22.226a2.5,2.5,0,0,0-3.531,0L50.4,30.192a2.5,2.5,0,0,0,0,3.53l7.495,7.495a2.477,2.477,0,0,0,1.765.731Zm-7.644-10.14,7.965-7.965a.211.211,0,0,1,.3,0l7.495,7.494a.212.212,0,0,1,0,.3L59.809,39.6a.208.208,0,0,1-.149.062.206.206,0,0,1-.149-.062l-7.495-7.495a.212.212,0,0,1,0-.3Zm0,0"/>
        <path id="Trazado_126009" data-name="Trazado 126009" d="M32.427,21.966a2.481,2.481,0,0,0-1.765.731L22.7,30.662a2.5,2.5,0,0,0,0,3.531l7.495,7.494a2.5,2.5,0,0,0,3.531,0l7.965-7.965a2.5,2.5,0,0,0,0-3.53L34.192,22.7a2.481,2.481,0,0,0-1.766-.731Zm7.644,10.14-7.965,7.965a.211.211,0,0,1-.3,0l-7.494-7.495a.211.211,0,0,1,0-.3l7.965-7.965a.21.21,0,0,1,.3,0l7.495,7.495A.211.211,0,0,1,40.071,32.106Zm0,0"/>
        <path id="Trazado_126010" data-name="Trazado 126010" d="M45.573,56.035a2.48,2.48,0,0,0,1.765-.731L55.3,47.338a2.5,2.5,0,0,0,0-3.531l-7.494-7.495a2.5,2.5,0,0,0-3.531,0l-7.965,7.965a2.5,2.5,0,0,0,0,3.531l2.239,2.239a1.142,1.142,0,1,0,1.616-1.616L37.93,46.193a.211.211,0,0,1,0-.3l7.965-7.965a.209.209,0,0,1,.149-.061.206.206,0,0,1,.149.061l7.494,7.495a.211.211,0,0,1,0,.3l-7.965,7.965a.209.209,0,0,1-.149.061.2.2,0,0,1-.149-.061l-2.24-2.24a1.142,1.142,0,0,0-1.616,1.616l2.239,2.24a2.481,2.481,0,0,0,1.765.731Zm0,0"/>
        <path id="Trazado_126011" data-name="Trazado 126011" d="M18.34,36.052a2.48,2.48,0,0,0-1.766.731L8.61,44.749a2.5,2.5,0,0,0,0,3.531L16.1,55.773a2.5,2.5,0,0,0,3.53,0L27.6,47.809a2.5,2.5,0,0,0,0-3.531l-7.495-7.494a2.478,2.478,0,0,0-1.765-.731Zm7.644,10.14-7.965,7.965a.21.21,0,0,1-.3,0l-7.495-7.495a.212.212,0,0,1,0-.3L18.191,38.4a.211.211,0,0,1,.3,0l7.495,7.495A.212.212,0,0,1,25.984,46.193Zm0,0"/>
        <path id="Trazado_126012" data-name="Trazado 126012" d="M29.721,69.39a2.5,2.5,0,0,0,3.531,0l7.965-7.965a2.5,2.5,0,0,0,0-3.53L33.722,50.4a2.5,2.5,0,0,0-3.531,0l-7.965,7.965a2.5,2.5,0,0,0,0,3.531Zm-5.878-9.41,7.965-7.965a.211.211,0,0,1,.3,0L39.6,59.51a.212.212,0,0,1,0,.3l-7.965,7.965a.21.21,0,0,1-.3,0l-7.495-7.495A.211.211,0,0,1,23.842,59.981Zm0,0"/>
      </g>
    </g>
  </g>
</svg>
