<svg xmlns="http://www.w3.org/2000/svg" xmlns:xlink="http://www.w3.org/1999/xlink" width="130" height="120" viewBox="0 0 130 120">
  <defs>
    <clipPath id="clip-path">
      <rect id="Rect치ngulo_35870" data-name="Rect치ngulo 35870" width="78" height="82" transform="translate(291 -9668)" fill="#fd7f23"/>
    </clipPath>
  </defs>
  <g id="Grupo_176352" data-name="Grupo 176352" transform="translate(-265 9687)">
    <rect id="Rect치ngulo_35871" data-name="Rect치ngulo 35871" width="130" height="120" transform="translate(265 -9687)" fill="none"/>
    <g id="Enmascarar_grupo_281" data-name="Enmascarar grupo 281" clip-path="url(#clip-path)">
      <g id="chocolate_2_" data-name="chocolate (2)" transform="translate(295.011 -9668)">
        <path id="Trazado_126013" data-name="Trazado 126013" d="M13.831,25.821,2.621,37.031a4.848,4.848,0,0,0,0,6.855L38.114,79.379a4.848,4.848,0,0,0,6.855,0L67.358,56.991a4.847,4.847,0,0,0,0-6.855L44.688,27.467a3.04,3.04,0,0,0-3.258-.683c-10.745,4.2-18.194,2.513-23.738-1.329a3.03,3.03,0,0,0-3.861.365Zm0,0" fill="#d2996f"/>
        <g id="Grupo_176366" data-name="Grupo 176366">
          <path id="Trazado_126014" data-name="Trazado 126014" d="M16.738,25.019a3.048,3.048,0,0,0-2.907.8L2.621,37.031a4.848,4.848,0,0,0,0,6.855L17.773,59.038C13.856,48.855,12.587,34.9,16.738,25.019Zm0,0" fill="#c47b46"/>
          <path id="Trazado_126015" data-name="Trazado 126015" d="M22.886,42.375l-5.61,5.61a2.692,2.692,0,0,1-3.806,0l-5.61-5.61a2.692,2.692,0,0,1,0-3.806l5.61-5.61a2.691,2.691,0,0,1,3.806,0l5.61,5.61A2.691,2.691,0,0,1,22.886,42.375Zm0,0" fill="#c47b46"/>
          <path id="Trazado_126016" data-name="Trazado 126016" d="M35.964,55.452l-5.611,5.61a2.69,2.69,0,0,1-3.8,0l-5.61-5.61a2.69,2.69,0,0,1,0-3.8l5.61-5.61a2.69,2.69,0,0,1,3.8,0l5.611,5.61A2.691,2.691,0,0,1,35.964,55.452Zm0,0" fill="#c47b46"/>
          <path id="Trazado_126017" data-name="Trazado 126017" d="M49.041,42.375l-5.61,5.61a2.691,2.691,0,0,1-3.8,0l-5.61-5.61a2.691,2.691,0,0,1,0-3.806l5.61-5.61a2.69,2.69,0,0,1,3.8,0l5.61,5.61A2.691,2.691,0,0,1,49.041,42.375Zm0,0" fill="#c47b46"/>
          <path id="Trazado_126018" data-name="Trazado 126018" d="M49.041,68.53l-5.61,5.61a2.69,2.69,0,0,1-3.8,0l-5.61-5.61a2.69,2.69,0,0,1,0-3.8l5.61-5.611a2.691,2.691,0,0,1,3.8,0l5.61,5.611A2.69,2.69,0,0,1,49.041,68.53Zm0,0" fill="#c47b46"/>
          <path id="Trazado_126019" data-name="Trazado 126019" d="M62.119,55.452l-5.61,5.61a2.691,2.691,0,0,1-3.806,0l-5.61-5.61a2.691,2.691,0,0,1,0-3.8l5.61-5.61a2.691,2.691,0,0,1,3.806,0l5.61,5.61A2.69,2.69,0,0,1,62.119,55.452Zm0,0" fill="#c47b46"/>
          <path id="Trazado_126020" data-name="Trazado 126020" d="M20.187,26.958a2.685,2.685,0,0,0,.75,2.339l5.61,5.61a2.691,2.691,0,0,0,3.8,0l5.611-5.61a2.68,2.68,0,0,0,.61-.946c-6.807,1.7-12.111.81-16.387-1.393Zm0,0" fill="#c47b46"/>
        </g>
        <path id="Trazado_126021" data-name="Trazado 126021" d="M26.583,6.048v11a1.892,1.892,0,0,0,2.208,1.866c6.543-1.111,12.94-4.96,17.6-15.018A1.893,1.893,0,0,0,44.675,1.2H31.43a4.847,4.847,0,0,0-4.847,4.847Zm0,0" fill="#d2996f"/>
        <path id="Trazado_126022" data-name="Trazado 126022" d="M31.375,8.665V16.6a2.677,2.677,0,0,0,.506,1.567c4.582-1.465,8.962-4.586,12.573-10.6A2.69,2.69,0,0,0,42,5.974H34.066a2.691,2.691,0,0,0-2.691,2.691Zm0,0" fill="#c47b46"/>
        <path id="Trazado_126023" data-name="Trazado 126023" d="M44.974,20.942V17.69a1.209,1.209,0,0,1,1.745-1.083l3,1.486a1.208,1.208,0,0,1,.076,2.125l-3,1.765a1.209,1.209,0,0,1-1.822-1.042Zm0,0" fill="#d2996f"/>
        <path id="Trazado_126024" data-name="Trazado 126024" d="M51.46,8.71l1.129,2.912a1.313,1.313,0,0,0,2.214.387L57.163,9.3a1.313,1.313,0,0,0-.915-2.173l-3.489-.2a1.312,1.312,0,0,0-1.3,1.785Zm0,0" fill="#d2996f"/>
        <path id="Trazado_126025" data-name="Trazado 126025" d="M26.48,19.412a3.087,3.087,0,0,0,2.512.686,23.774,23.774,0,0,0,3.235-.783l.036-.011c6.556-2.1,11.554-7,15.214-14.9a3.094,3.094,0,0,0-2.8-4.4H31.429a6.055,6.055,0,0,0-6.048,6.048V10.3a1.2,1.2,0,0,0,2.4,0V6.048A3.65,3.65,0,0,1,31.429,2.4H44.674a.666.666,0,0,1,.578.316.692.692,0,0,1,.044.673q-.506,1.093-1.049,2.1A3.88,3.88,0,0,0,42,4.773H34.066a3.9,3.9,0,0,0-3.892,3.892V16.6a3.935,3.935,0,0,0,.081.778c-.544.137-1.1.257-1.665.352a.69.69,0,0,1-.805-.681V15.891a1.2,1.2,0,1,0-2.4,0v1.159a3.087,3.087,0,0,0,1.1,2.363Zm6.1-10.747a1.491,1.491,0,0,1,1.49-1.49H42a1.487,1.487,0,0,1,1.025.415,21.523,21.523,0,0,1-10.448,9.053c0-.015,0-.029,0-.044Zm17.677,8.353-3-1.486a2.41,2.41,0,0,0-3.479,2.16v3.251A2.4,2.4,0,0,0,47.4,23.019l3-1.765a2.41,2.41,0,0,0-.152-4.237Zm-1.065,2.166L46.176,20.95a.046.046,0,0,1,0-.008l.011-3.258,3,1.485S49.191,19.181,49.187,19.183ZM50.339,9.145l1.13,2.912a2.5,2.5,0,0,0,1.911,1.567,2.573,2.573,0,0,0,.441.039,2.492,2.492,0,0,0,1.887-.865l2.36-2.711a2.514,2.514,0,0,0-1.752-4.16l-3.49-.2a2.514,2.514,0,0,0-2.488,3.418Zm2.254-.975a.1.1,0,0,1,.1-.046l3.49.2a.1.1,0,0,1,.1.068.1.1,0,0,1-.019.116L53.9,11.221a.1.1,0,0,1-.1.037.1.1,0,0,1-.085-.07L52.579,8.276A.1.1,0,0,1,52.593,8.17ZM45.1,53.55a3.868,3.868,0,0,0,1.14,2.752l5.61,5.61a3.891,3.891,0,0,0,5.5,0l5.61-5.61a3.891,3.891,0,0,0,0-5.5l-5.61-5.61a3.9,3.9,0,0,0-5.5,0L46.243,50.8A3.869,3.869,0,0,0,45.1,53.55ZM47.942,52.5l5.61-5.61a1.491,1.491,0,0,1,2.106,0l5.61,5.61a1.488,1.488,0,0,1,0,2.106l-5.61,5.611a1.489,1.489,0,0,1-2.106,0l-5.61-5.61a1.488,1.488,0,0,1,0-2.106ZM25.7,61.912a3.892,3.892,0,0,0,5.5,0l5.61-5.61a3.892,3.892,0,0,0,0-5.5l-5.61-5.61a3.9,3.9,0,0,0-5.5,0l-5.61,5.61a3.9,3.9,0,0,0,0,5.5ZM21.786,52.5l5.611-5.61a1.491,1.491,0,0,1,2.106,0l5.61,5.61a1.49,1.49,0,0,1,0,2.106L29.5,60.214a1.489,1.489,0,0,1-2.106,0l-5.61-5.61a1.489,1.489,0,0,1,0-2.106ZM38.776,74.99a3.9,3.9,0,0,0,5.5,0l5.61-5.611a3.892,3.892,0,0,0,0-5.5l-5.61-5.61a3.892,3.892,0,0,0-5.5,0l-5.61,5.61a3.892,3.892,0,0,0,0,5.5Zm-3.912-9.416,5.61-5.61a1.49,1.49,0,0,1,2.106,0l5.611,5.61a1.49,1.49,0,0,1,0,2.106l-5.611,5.61a1.491,1.491,0,0,1-2.106,0l-5.61-5.61a1.49,1.49,0,0,1,0-2.106ZM68.207,49.286,45.537,26.617a4.243,4.243,0,0,0-4.545-.952c-8.983,3.515-16.381,3.124-22.616-1.2a4.225,4.225,0,0,0-5.4.5L1.772,36.182a6.047,6.047,0,0,0,0,8.553L37.265,80.228a6.048,6.048,0,0,0,8.553,0l3.2-3.2a1.2,1.2,0,0,0-1.7-1.7l-3.2,3.2a3.646,3.646,0,0,1-5.156,0L3.47,43.036a3.645,3.645,0,0,1,0-5.156L14.68,26.67a1.823,1.823,0,0,1,2.327-.228q.961.665,1.953,1.221a3.9,3.9,0,0,0,1.127,2.483L25.7,35.757a3.9,3.9,0,0,0,5.5,0l5.61-5.611a3.83,3.83,0,0,0,.594-.766A42.292,42.292,0,0,0,41.868,27.9a1.838,1.838,0,0,1,1.971.413l22.669,22.67a3.645,3.645,0,0,1,0,5.156L51.321,71.328a1.2,1.2,0,0,0,1.7,1.7L68.207,57.84a6.05,6.05,0,0,0,0-8.554ZM29.5,34.058a1.49,1.49,0,0,1-2.106,0L22.643,29.3a23.206,23.206,0,0,0,10.717.9ZM44.28,32.109a3.892,3.892,0,0,0-5.5,0l-5.61,5.61a3.9,3.9,0,0,0,0,5.5l5.61,5.61a3.9,3.9,0,0,0,5.5,0l5.61-5.61a3.9,3.9,0,0,0,0-5.5Zm3.912,9.416-5.611,5.61a1.491,1.491,0,0,1-2.106,0l-5.61-5.61a1.491,1.491,0,0,1,0-2.106l5.611-5.61a1.488,1.488,0,0,1,2.106,0l5.61,5.61a1.491,1.491,0,0,1,0,2.106Zm-24.456,1.7a3.9,3.9,0,0,0,0-5.5l-5.61-5.61a3.891,3.891,0,0,0-5.5,0L7.01,37.721a3.9,3.9,0,0,0,0,5.5l5.61,5.611a3.9,3.9,0,0,0,5.5,0l5.61-5.611h0Zm-1.7-1.7h0l-5.611,5.61a1.491,1.491,0,0,1-2.106,0l-5.61-5.61a1.491,1.491,0,0,1,0-2.106l5.61-5.61a1.488,1.488,0,0,1,2.106,0l5.61,5.61a1.49,1.49,0,0,1,0,2.106Zm0,0"/>
      </g>
    </g>
  </g>
</svg>
