<svg xmlns="http://www.w3.org/2000/svg" xmlns:xlink="http://www.w3.org/1999/xlink" width="85" height="85" viewBox="0 0 85 85">
  <defs>
    <clipPath id="clip-path">
      <rect id="Rectángulo_35793" data-name="Rectángulo 35793" width="85" height="85" transform="translate(285 853)" fill="#fff" stroke="#707070" stroke-width="1"/>
    </clipPath>
  </defs>
  <g id="Grupo_176394" data-name="Grupo 176394" transform="translate(-443 -837)">
    <g id="Enmascarar_grupo_259" data-name="Enmascarar grupo 259" transform="translate(158 -16)" clip-path="url(#clip-path)">
      <g id="_23-Humidity" data-name="23-Humidity" transform="translate(296.952 852.999)">
        <path id="Trazado_125537" data-name="Trazado 125537" d="M54.643,19.658H8.049a23.908,23.908,0,1,0,46.594,0Z" transform="translate(-0.797 29.448)" fill="#5ec8e6"/>
        <path id="Trazado_125538" data-name="Trazado 125538" d="M63.755,53.66a29.221,29.221,0,1,1-58.442,0c0-13.734,18.343-43.791,26.857-52.173a3.4,3.4,0,0,1,4.728,0C45.412,9.869,63.755,39.926,63.755,53.66Zm-5.313,0a24.125,24.125,0,0,0-.611-5.313H11.237a23.908,23.908,0,1,0,47.2,5.313Z" transform="translate(-3.985 0.759)" fill="#c2f1ff"/>
        <path id="Trazado_125539" data-name="Trazado 125539" d="M8.536,19.658h-.5A23.908,23.908,0,0,0,52.389,36.3,29.212,29.212,0,0,1,8.536,19.658Z" transform="translate(-0.786 29.448)" fill="#26a5c9"/>
        <path id="Trazado_125540" data-name="Trazado 125540" d="M55.587,45.85A23.895,23.895,0,0,1,11.237,29.206h.5a29.221,29.221,0,0,1-1.109-7.969A29.461,29.461,0,0,1,12,13.292C8.1,21.347,5.313,29.171,5.313,34.519A29.221,29.221,0,0,0,63.489,38.4a29.363,29.363,0,0,1-7.9,7.451Z" transform="translate(-3.985 19.9)" fill="#a4eaff"/>
        <path id="Trazado_125541" data-name="Trazado 125541" d="M20.781,11.017a2.656,2.656,0,0,1-2.221-1.2c-.311-.473-.623-.93-.93-1.395a2.656,2.656,0,1,1,4.4-2.981q.486.713.972,1.461a2.656,2.656,0,0,1-2.218,4.11Z" transform="translate(13.753 6.307)" fill="#fff"/>
        <path id="Trazado_125542" data-name="Trazado 125542" d="M32.3,34.535a2.656,2.656,0,0,1-2.51-1.793,123.763,123.763,0,0,0-9.94-20.777,2.657,2.657,0,0,1,4.589-2.678A129.992,129.992,0,0,1,34.812,31.012,2.656,2.656,0,0,1,32.3,34.535Z" transform="translate(17.277 11.915)" fill="#fff"/>
        <path id="Trazado_125543" data-name="Trazado 125543" d="M10.626,19.126h2.656v2.656H10.626Z" transform="translate(3.985 28.651)"/>
        <path id="Trazado_125544" data-name="Trazado 125544" d="M13.549,21.783V19.126h-4.7a1.328,1.328,0,0,0-1.3,1.033,25.236,25.236,0,1,0,49.179,0,1.328,1.328,0,0,0-1.3-1.033H21.518v2.656H54.356a22.334,22.334,0,0,1,.368,3.985,22.58,22.58,0,1,1-45.16,0,22.332,22.332,0,0,1,.368-3.985Z" transform="translate(-1.595 28.651)"/>
        <path id="Trazado_125545" data-name="Trazado 125545" d="M0,0H22.538V2.656H0Z" transform="translate(21.632 69.414) rotate(-45)"/>
        <path id="Trazado_125546" data-name="Trazado 125546" d="M17.533,30.018a3.985,3.985,0,1,0,3.985-3.985A3.985,3.985,0,0,0,17.533,30.018Zm5.313,0a1.328,1.328,0,1,1-1.328-1.328A1.328,1.328,0,0,1,22.845,30.018Z" transform="translate(14.345 39.012)"/>
        <path id="Trazado_125547" data-name="Trazado 125547" d="M17.267,20.72A3.985,3.985,0,1,0,21.252,24.7a3.985,3.985,0,0,0-3.985-3.985Zm0,5.313A1.328,1.328,0,1,1,18.6,24.7,1.328,1.328,0,0,1,17.267,26.033Z" transform="translate(7.969 31.042)"/>
        <path id="Trazado_125548" data-name="Trazado 125548" d="M24.221,11.711l2.294-1.342q-.8-1.355-1.594-2.676l-2.27,1.381Q23.44,10.376,24.221,11.711Z" transform="translate(22.022 11.501)"/>
        <path id="Trazado_125549" data-name="Trazado 125549" d="M54.554,9.835l-2.319,1.3C59.024,23.27,62.921,33.685,62.921,39.7A27.893,27.893,0,0,1,7.6,44.777l-2.613.481A30.549,30.549,0,0,0,65.578,39.7C65.578,30.86,58.671,17.194,54.554,9.835Z" transform="translate(-4.48 14.715)"/>
        <path id="Trazado_125550" data-name="Trazado 125550" d="M7.438,54.434c0-13.26,17.973-42.87,26.461-51.229a2.125,2.125,0,0,1,2.862,0,92.843,92.843,0,0,1,11.055,14.75l2.245-1.421A94.142,94.142,0,0,0,38.625,1.305a4.852,4.852,0,0,0-6.589,0C23.062,10.15,4.782,40.319,4.782,54.434c0,.93.041,1.86.125,2.776l2.646-.239c-.076-.837-.114-1.689-.114-2.537Z" transform="translate(-4.782 -0.015)"/>
      </g>
    </g>
  </g>
</svg>
