<svg xmlns="http://www.w3.org/2000/svg" xmlns:xlink="http://www.w3.org/1999/xlink" width="85" height="85" viewBox="0 0 85 85">
  <defs>
    <clipPath id="clip-path">
      <rect id="Rectángulo_35795" data-name="Rectángulo 35795" width="85" height="85" transform="translate(285 941)" fill="#fff" stroke="#707070" stroke-width="1"/>
    </clipPath>
  </defs>
  <g id="Grupo_176396" data-name="Grupo 176396" transform="translate(-863 -827)">
    <g id="Enmascarar_grupo_261" data-name="Enmascarar grupo 261" transform="translate(578 -114)" clip-path="url(#clip-path)">
      <g id="trufa" transform="translate(285 947.237)">
        <g id="Grupo_176126" data-name="Grupo 176126" transform="translate(1.663 1.663)">
          <path id="Trazado_125564" data-name="Trazado 125564" d="M82.338,37.76c0,2.473-1.2,4.712-2.447,6.908a33.687,33.687,0,0,0-2.1,4.04c-1.432,3.593-1.482,8.179-4.1,11.123-2.538,2.849-7.106,3.486-10.526,5.524-3.262,1.945-5.938,5.7-9.8,6.723-3.655.971-7.846-.9-11.863-.9s-8.209,1.871-11.863.9A13.079,13.079,0,0,1,23.622,68.3a48.661,48.661,0,0,0-5.614-3.8A48.821,48.821,0,0,0,10.617,61a8.307,8.307,0,0,1-1.3-1.171c-2.622-2.944-2.671-7.53-4.1-11.123C3.787,45.139.665,41.754.665,37.76S3.788,30.381,5.21,26.811c1.432-3.593,1.482-8.179,4.1-11.123,2.538-2.849,7.106-3.486,10.526-5.524,3.262-1.945,5.938-5.7,9.8-6.723,3.655-.971,7.846.9,11.863.9a37.392,37.392,0,0,0,6.16-.83,13.462,13.462,0,0,1,5.7-.07c3.861,1.028,6.537,4.779,9.8,6.723,3.42,2.038,7.988,2.675,10.526,5.524,2.622,2.944,2.671,7.53,4.1,11.123,1.422,3.57,4.544,6.955,4.544,10.949Z" transform="translate(-0.665 -3.16)" fill="#c68a65"/>
          <path id="Trazado_125565" data-name="Trazado 125565" d="M58.269,37.76c0,2.473-1.2,4.712-2.447,6.908l-.411.151c-3.892,2-8.074,4.5-12.572,3.648-4.1-.775-7.352-4.588-11.063-7.369-3.377-2.53-8.006-4.376-10.393-8.3-1.858-3.049-1.158-7.033-1.916-10.153-.843-3.477-3.159-6.8-2.695-9.977.511-3.5,3.743-5.857,5.765-8.455l1.055-.705a13.462,13.462,0,0,1,5.7-.07c3.861,1.028,6.537,4.779,9.8,6.723,3.42,2.038,7.988,2.675,10.526,5.524,2.622,2.944,2.671,7.53,4.1,11.123,1.423,3.57,4.545,6.955,4.545,10.948Z" transform="translate(23.404 -3.16)" fill="#e8d0c1"/>
        </g>
        <g id="Grupo_176127" data-name="Grupo 176127">
          <path id="Trazado_125566" data-name="Trazado 125566" d="M82.1,30.616a28.233,28.233,0,0,1-1.763-3.422,28.347,28.347,0,0,1-1.1-3.835c-.654-2.734-1.331-5.562-3.3-7.778C74.094,13.518,71.5,12.508,69,11.531a26.953,26.953,0,0,1-3.985-1.8,24.7,24.7,0,0,1-3.34-2.592c-2.028-1.758-4.125-3.576-6.884-4.31-2.549-.678-5.176-.2-7.717.272a25.833,25.833,0,0,1-4.574.572A25.831,25.831,0,0,1,37.926,3.1c-2.541-.467-5.168-.95-7.717-.272-2.759.734-4.856,2.552-6.884,4.31a24.71,24.71,0,0,1-3.34,2.592A26.942,26.942,0,0,1,16,11.531c-2.5.977-5.095,1.987-6.931,4.049C7.1,17.8,6.419,20.624,5.765,23.359a28.36,28.36,0,0,1-1.1,3.835A28.252,28.252,0,0,1,2.9,30.615C1.474,33.11,0,35.689,0,38.758S1.474,44.406,2.9,46.9a28.229,28.229,0,0,1,1.763,3.422,28.345,28.345,0,0,1,1.1,3.835c.654,2.734,1.331,5.562,3.305,7.779a9.965,9.965,0,0,0,1.564,1.407A1.663,1.663,0,1,0,12.6,60.657a6.539,6.539,0,0,1-1.042-.934,12.3,12.3,0,0,1-2.309-5.328c-.374-1.649-.959-6.454.76-9.118a4.064,4.064,0,0,1,2.752-1.834,1.663,1.663,0,1,0-.66-3.261A7.331,7.331,0,0,0,7.21,43.472,9.471,9.471,0,0,0,6.13,45.851q-.171-.3-.343-.6c-1.266-2.214-2.461-4.306-2.461-6.491s1.2-4.277,2.461-6.491a31.125,31.125,0,0,0,1.965-3.841A31.231,31.231,0,0,0,9,24.133c.584-2.442,1.136-4.748,2.554-6.34,1.305-1.466,3.418-2.29,5.656-3.162a29.829,29.829,0,0,0,4.479-2.04A27.493,27.493,0,0,0,25.5,9.654c1.822-1.58,3.544-3.072,5.56-3.609,1.827-.486,3.98-.09,6.26.329A28.694,28.694,0,0,0,42.5,7c.448,0,.893-.021,1.337-.057-1.622,1.78-3.253,3.814-3.644,6.483-.362,2.473.59,4.843,1.511,7.136a26.41,26.41,0,0,1,1.215,3.475,20.731,20.731,0,0,1,.4,3.4,31.974,31.974,0,0,0,.335,3.3l.005.043h0a10.909,10.909,0,0,0,1.369,3.877A16.419,16.419,0,0,0,49.708,39.4a5.8,5.8,0,0,1,1.1,2.357c.434,2.021-.2,4.178-1.883,6.41a1.663,1.663,0,1,0,2.656,2,11.518,11.518,0,0,0,2.657-7.855c.565.365,1.106.73,1.612,1.11.976.731,1.952,1.565,2.9,2.371,2.679,2.289,5.448,4.655,8.855,5.3a11.525,11.525,0,0,0,2.154.2,17.669,17.669,0,0,0,7.39-1.93A33.512,33.512,0,0,0,76,53.382c-.584,2.442-1.136,4.748-2.554,6.34-1.305,1.466-3.418,2.29-5.656,3.162-.418.163-.84.328-1.263.5a7.148,7.148,0,0,0-2.263-4.551,1.663,1.663,0,1,0-2.226,2.472,3.768,3.768,0,0,1,1.168,2.454,3.127,3.127,0,0,1-1.363,2.161c-.814.612-1.589,1.283-2.348,1.941-1.823,1.58-3.544,3.072-5.56,3.609-1.827.486-3.98.09-6.26-.329a28.694,28.694,0,0,0-5.175-.627,19.6,19.6,0,0,0-2.74.216q.084-.181.158-.368c1.323-3.369-.518-6.843-.6-6.99a1.663,1.663,0,0,0-2.931,1.574,5.8,5.8,0,0,1,.425,4.216,4.776,4.776,0,0,1-3.062,2.5,8.294,8.294,0,0,1-2.688-.195,11.152,11.152,0,0,1-5.249-3.331,1.663,1.663,0,1,0-2.39,2.315,14.277,14.277,0,0,0,6.784,4.231,11.735,11.735,0,0,0,3.98.283c.031,0,2.536-.334,3.737-.555a25.833,25.833,0,0,1,4.574-.572,25.831,25.831,0,0,1,4.574.572,27.749,27.749,0,0,0,4.969.607,10.633,10.633,0,0,0,2.748-.336c2.759-.734,4.856-2.552,6.884-4.31.637-.553,2.954-2.362,3.34-2.592A26.941,26.941,0,0,1,69,65.985c2.5-.977,5.095-1.987,6.931-4.049,1.974-2.217,2.651-5.044,3.305-7.779a28.362,28.362,0,0,1,1.1-3.835A28.253,28.253,0,0,1,82.1,46.9c1.426-2.494,2.9-5.073,2.9-8.142s-1.474-5.648-2.9-8.142ZM68.216,47.831a12.224,12.224,0,0,1-5.049-2.678,7.144,7.144,0,0,0,3.667-3.676,1.663,1.663,0,0,0-3.068-1.287A3.847,3.847,0,0,1,61.833,42.1,3.62,3.62,0,0,1,59,41.676c-.382-.31-3.391-2.432-4.524-3.136-2.524-1.567-5.133-3.188-6.606-5.606a7.506,7.506,0,0,1-.917-2.6,3.955,3.955,0,0,1,.469-2.075c.783-1.452,2.459-2.392,4.981-2.8a1.663,1.663,0,0,0-.527-3.285,11.345,11.345,0,0,0-5.5,2.251c-.059-.4-.131-.787-.224-1.17a28.857,28.857,0,0,0-1.361-3.93c-.791-1.97-1.538-3.83-1.306-5.414.3-2.024,1.842-3.687,3.479-5.446.666-.716,1.354-1.456,1.955-2.228.024-.031.045-.063.067-.095a11.937,11.937,0,0,1,4.951-.094c2.016.536,3.738,2.029,5.56,3.609l.139.12a1.658,1.658,0,0,0,.33.41,3.768,3.768,0,0,1,1.168,2.454,3.351,3.351,0,0,1-1.609,2.354,1.663,1.663,0,1,0,1.994,2.663,6.611,6.611,0,0,0,2.9-4.461c1.1.551,2.25,1,3.37,1.436,2.237.872,4.35,1.7,5.656,3.162,1.418,1.592,1.969,3.9,2.554,6.34a31.228,31.228,0,0,0,1.247,4.292,31.083,31.083,0,0,0,1.965,3.841c1.266,2.214,2.461,4.306,2.461,6.491a11.826,11.826,0,0,1-1.94,5.574l-.014.006c-.361.185-.724.375-1.091.566-3.39,1.768-6.9,3.6-10.413,2.929Z" transform="translate(0 -2.495)"/>
          <circle id="Elipse_4005" data-name="Elipse 4005" cx="1.663" cy="1.663" r="1.663" transform="translate(16.745 60.984)"/>
          <circle id="Elipse_4006" data-name="Elipse 4006" cx="1.663" cy="1.663" r="1.663" transform="translate(25.309 25.286)"/>
          <circle id="Elipse_4007" data-name="Elipse 4007" cx="1.663" cy="1.663" r="1.663" transform="translate(15.441 21.244)"/>
          <circle id="Elipse_4008" data-name="Elipse 4008" cx="1.663" cy="1.663" r="1.663" transform="translate(24.745 15.418)"/>
          <circle id="Elipse_4009" data-name="Elipse 4009" cx="1.663" cy="1.663" r="1.663" transform="translate(62.338 26.11)"/>
          <circle id="Elipse_4010" data-name="Elipse 4010" cx="1.663" cy="1.663" r="1.663" transform="translate(68.015 19.793)"/>
          <circle id="Elipse_4011" data-name="Elipse 4011" cx="1.663" cy="1.663" r="1.663" transform="translate(69.78 28.843)"/>
        </g>
      </g>
    </g>
  </g>
</svg>
