<svg xmlns="http://www.w3.org/2000/svg" xmlns:xlink="http://www.w3.org/1999/xlink" width="85" height="85" viewBox="0 0 85 85">
  <defs>
    <clipPath id="clip-path">
      <rect id="Rectángulo_35798" data-name="Rectángulo 35798" width="85" height="85" transform="translate(285 1161)" fill="#fff" stroke="#707070" stroke-width="1"/>
    </clipPath>
  </defs>
  <g id="Grupo_176401" data-name="Grupo 176401" transform="translate(-1073 -1038)">
    <g id="Enmascarar_grupo_264" data-name="Enmascarar grupo 264" transform="translate(788 -123)" clip-path="url(#clip-path)">
      <g id="bolas-de-choco" transform="translate(295.957 1161)">
        <g id="Grupo_176131" data-name="Grupo 176131" transform="translate(1.66 1.66)">
          <path id="Trazado_125593" data-name="Trazado 125593" d="M13.945,49.273A13.281,13.281,0,1,0,.664,35.992,13.307,13.307,0,0,0,13.945,49.273Zm0,0" transform="translate(-0.664 32.406)" fill="#7c594e" fill-rule="evenodd"/>
          <path id="Trazado_125594" data-name="Trazado 125594" d="M26.895,39.711A11.621,11.621,0,1,0,15.273,28.09,11.644,11.644,0,0,0,26.895,39.711Zm0,0" transform="translate(21.25 23.043)" fill="#7c594e" fill-rule="evenodd"/>
          <path id="Trazado_125595" data-name="Trazado 125595" d="M13.805,28.422a9.961,9.961,0,1,0-9.961-9.961A9.98,9.98,0,0,0,13.805,28.422Zm0,0" transform="translate(4.106 11.09)" fill="#7c594e" fill-rule="evenodd"/>
          <path id="Trazado_125596" data-name="Trazado 125596" d="M24.009,17.266a8.3,8.3,0,1,0-8.3-8.3A8.317,8.317,0,0,0,24.009,17.266Zm0,0" transform="translate(21.903 -0.664)" fill="#7c594e" fill-rule="evenodd"/>
        </g>
        <path id="Trazado_125597" data-name="Trazado 125597" d="M14.941,22.047A14.941,14.941,0,1,0,29.883,36.988,14.959,14.959,0,0,0,14.941,22.047Zm0,26.563A11.621,11.621,0,1,1,26.563,36.988,11.634,11.634,0,0,1,14.941,48.609Zm0,0" transform="translate(0 33.07)"/>
        <path id="Trazado_125598" data-name="Trazado 125598" d="M5.957,25.149a9.678,9.678,0,0,0-3.832,7.689,1.66,1.66,0,0,0,3.32,0A6.34,6.34,0,0,1,7.956,27.8a1.66,1.66,0,0,0-2-2.652Zm0,0" transform="translate(3.188 37.221)"/>
        <path id="Trazado_125599" data-name="Trazado 125599" d="M27.891,15.8a13.281,13.281,0,1,0,3.437,26.11,1.66,1.66,0,1,0-.859-3.207,9.963,9.963,0,1,1,7.043-7.043,1.66,1.66,0,0,0,3.207.859A13.281,13.281,0,0,0,27.891,15.8Zm0,0" transform="translate(21.914 23.707)"/>
        <path id="Trazado_125600" data-name="Trazado 125600" d="M17.3,21.914a1.66,1.66,0,1,0,2.875,1.66A4.66,4.66,0,0,1,24.2,21.25a1.66,1.66,0,1,0,0-3.32,7.991,7.991,0,0,0-6.9,3.984Zm0,0" transform="translate(25.608 26.895)"/>
        <path id="Trazado_125601" data-name="Trazado 125601" d="M14.8,7.836A11.621,11.621,0,1,0,26.422,19.457,11.634,11.634,0,0,0,14.8,7.836Zm0,19.922a8.3,8.3,0,1,1,8.3-8.3A8.31,8.31,0,0,1,14.8,27.758Zm0,0" transform="translate(4.77 11.754)"/>
        <path id="Trazado_125602" data-name="Trazado 125602" d="M13.951,10.806a6.31,6.31,0,0,0-7.615,1,1.66,1.66,0,1,0,2.348,2.348,2.988,2.988,0,0,1,3.608-.475,1.66,1.66,0,0,0,1.66-2.876Zm0,0" transform="translate(8.775 14.941)"/>
        <path id="Trazado_125603" data-name="Trazado 125603" d="M25.005,19.922a9.973,9.973,0,0,0,9.961-9.961,1.66,1.66,0,0,0-3.32,0A6.641,6.641,0,1,1,25.005,3.32a1.66,1.66,0,0,0,0-3.32,9.961,9.961,0,0,0,0,19.922Zm0,0" transform="translate(22.567)"/>
        <path id="Trazado_125604" data-name="Trazado 125604" d="M21.386,4.028a1.66,1.66,0,0,0,2.653-2l-.079-.1a1.66,1.66,0,0,0-2.623,2.036Zm0,0" transform="translate(31.482 1.928)"/>
        <path id="Trazado_125605" data-name="Trazado 125605" d="M7.014,24.172H6.922a1.66,1.66,0,0,0,.023,3.32h.07a1.66,1.66,0,0,0,0-3.32Zm0,0" transform="translate(7.927 36.258)"/>
        <path id="Trazado_125606" data-name="Trazado 125606" d="M25.525,23.946a1.661,1.661,0,0,0-2.344.138l-.031.035a1.66,1.66,0,0,0,2.489,2.2l.024-.027A1.66,1.66,0,0,0,25.525,23.946Zm0,0" transform="translate(34.101 35.29)"/>
      </g>
    </g>
  </g>
</svg>
