<svg xmlns="http://www.w3.org/2000/svg" xmlns:xlink="http://www.w3.org/1999/xlink" width="85" height="85" viewBox="0 0 85 85">
  <defs>
    <clipPath id="clip-path">
      <rect id="Rectángulo_35800" data-name="Rectángulo 35800" width="85" height="85" transform="translate(285 1073)" fill="#fff" stroke="#707070" stroke-width="1"/>
    </clipPath>
  </defs>
  <g id="Grupo_176399" data-name="Grupo 176399" transform="translate(-653 -1038)">
    <g id="Enmascarar_grupo_266" data-name="Enmascarar grupo 266" transform="translate(368 -35)" clip-path="url(#clip-path)">
      <g id="cacao" transform="translate(285 1093.337)">
        <path id="Trazado_125623" data-name="Trazado 125623" d="M1.992,40.176s-.218-8.376,12.131-12.6S29.438,8.5,41.424,8.634,58.9,16.87,61.561,21.3s7.38,7.274,11.328,9.944,3.267,8.934,3.267,8.934H1.992Z" transform="translate(2.988 -7.387)" fill="#ab695d"/>
        <path id="Trazado_125624" data-name="Trazado 125624" d="M50.612,31.242c-3.948-2.67-8.672-5.515-11.328-9.944S31.133,8.77,19.147,8.634a13.34,13.34,0,0,0-2.3.171c10.145,1.2,15.01,8.409,17.459,12.494,2.656,4.429,7.38,7.274,11.328,9.944S48.9,40.176,48.9,40.176h4.98s.681-6.264-3.267-8.934Z" transform="translate(25.266 -7.387)" fill="#935b50"/>
        <path id="Trazado_125625" data-name="Trazado 125625" d="M78.149,26.762H5.356a3.839,3.839,0,0,1-3.488-2.235L.582,21.73A.9.9,0,0,1,1.4,20.453H82.106a.9.9,0,0,1,.818,1.277l-1.287,2.8A3.84,3.84,0,0,1,78.149,26.762Z" transform="translate(0.747 10.343)" fill="#eef5f6"/>
        <path id="Trazado_125626" data-name="Trazado 125626" d="M38.5,20.453h-4.98a.9.9,0,0,1,.818,1.277l-1.287,2.8a3.84,3.84,0,0,1-3.488,2.235h4.98a3.839,3.839,0,0,0,3.488-2.235l1.287-2.8A.9.9,0,0,0,38.5,20.453Z" transform="translate(44.35 10.343)" fill="#deecf1"/>
        <path id="Trazado_125627" data-name="Trazado 125627" d="M61.772,28.953h-49.3a4.455,4.455,0,0,1-2.825-1.01l-6.06-4.967h67.07L64.6,27.943A4.455,4.455,0,0,1,61.772,28.953Z" transform="translate(5.379 14.128)" fill="#deecf1"/>
        <path id="Trazado_125628" data-name="Trazado 125628" d="M33.753,22.977l-6.06,4.967a4.455,4.455,0,0,1-2.825,1.01h4.98a4.455,4.455,0,0,0,2.825-1.01l6.06-4.967Z" transform="translate(37.302 14.128)" fill="#cbe5e8"/>
        <path id="Trazado_125629" data-name="Trazado 125629" d="M84.66,38.674a2.136,2.136,0,0,0-1.807-.988H80.286a9.46,9.46,0,0,0-4.964-7.567c-3.5-2.336-7.468-4.983-9.705-8.714C62.24,15.774,56.369,8.272,44.427,8.136c-6.25-.09-10.4,3.787-13.7,7.412a1.245,1.245,0,1,0,1.837,1.681c3.767-4.117,7.064-6.65,11.833-6.6,10.695.122,16.013,6.941,19.083,12.06,2.525,4.211,6.74,7.023,10.459,9.5a6.893,6.893,0,0,1,3.827,5.5H66.206a1.245,1.245,0,0,0,0,2.49H82.315l-1.062,2.308a2.6,2.6,0,0,1-2.357,1.51H6.1a2.6,2.6,0,0,1-2.357-1.51L2.685,40.176H60.213a1.245,1.245,0,0,0,0-2.49H7.059C8.2,35.212,10.933,31.753,17.515,29.5c4.892-1.673,8.389-4.956,11.164-7.946a1.245,1.245,0,1,0-1.825-1.694c-2.694,2.9-5.787,5.793-10.145,7.284-8.322,2.847-11.284,7.6-12.337,10.541H2.147A2.146,2.146,0,0,0,.2,40.729l1.287,2.8a5.1,5.1,0,0,0,4.62,2.96H8.52l5.716,4.685a5.715,5.715,0,0,0,3.614,1.292h49.3a5.716,5.716,0,0,0,3.614-1.292l5.716-4.685H78.9a5.1,5.1,0,0,0,4.62-2.96l1.287-2.8a2.138,2.138,0,0,0-.143-2.054ZM69.186,49.243a3.22,3.22,0,0,1-2.035.728H17.85a3.22,3.22,0,0,1-2.035-.728l-3.366-2.759h60.1Z" transform="translate(0 -8.135)"/>
      </g>
    </g>
  </g>
</svg>
