<svg xmlns="http://www.w3.org/2000/svg" xmlns:xlink="http://www.w3.org/1999/xlink" width="85" height="85" viewBox="0 0 85 85">
  <defs>
    <clipPath id="clip-path">
      <rect id="Rectángulo_35797" data-name="Rectángulo 35797" width="85" height="85" transform="translate(285 1117)" fill="#fff" stroke="#707070" stroke-width="1"/>
    </clipPath>
  </defs>
  <g id="Grupo_176400" data-name="Grupo 176400" transform="translate(-863 -1038)">
    <g id="Enmascarar_grupo_265" data-name="Enmascarar grupo 265" transform="translate(578 -79)" clip-path="url(#clip-path)">
      <g id="bolas-de-choco_1_" data-name="bolas-de-choco (1)" transform="translate(285 1117.198)">
        <path id="Trazado_125607" data-name="Trazado 125607" d="M68.033,29.294a28.709,28.709,0,0,1-9.2,21.092,4.716,4.716,0,0,1-3.214,1.253H22.868a4.714,4.714,0,0,1-3.215-1.253A28.763,28.763,0,0,1,12.17,39.1q-.471-1.293-.815-2.641a28.791,28.791,0,1,1,56.677-7.161Zm0,0" transform="translate(15.685 0.759)" fill="#c0694e"/>
        <path id="Trazado_125608" data-name="Trazado 125608" d="M67.25,22.629l-.1.157-5.783,10.6a2.429,2.429,0,0,1-4.447-.43L54.562,25.5a2.427,2.427,0,0,0-4.252-.729l-3.757,4.981a2.428,2.428,0,0,1-4.338-1.094L40.84,19.662a2.427,2.427,0,0,0-4.632-.588l-6.721,15.7a2.428,2.428,0,0,1-4.656-.813l-.494-8.438a2.427,2.427,0,0,0-4.6-.938L12.534,39.1H12.17q-.471-1.293-.815-2.641A28.791,28.791,0,1,1,67.25,22.629Zm0,0" transform="translate(15.685 0.759)" fill="#954c35"/>
        <path id="Trazado_125609" data-name="Trazado 125609" d="M42.187.656a28.808,28.808,0,0,0-30.831,35.8Q11.7,37.8,12.17,39.1h.364l3.89-7.834q-.066-.976-.066-1.968A28.794,28.794,0,0,1,42.187.656Zm0,0" transform="translate(15.686 0.759)" fill="#7c3f2c"/>
        <path id="Trazado_125610" data-name="Trazado 125610" d="M58.085,41.67a28.709,28.709,0,0,1-9.2,21.092,4.713,4.713,0,0,1-3.214,1.253H12.921A4.715,4.715,0,0,1,9.7,62.763a28.781,28.781,0,0,1-7.485-11.3q-.468-1.29-.813-2.635A28.791,28.791,0,1,1,58.085,41.67Zm0,0" transform="translate(0.763 19.323)" fill="#ae583e"/>
        <path id="Trazado_125611" data-name="Trazado 125611" d="M54.544,41.58a28.709,28.709,0,0,1-9.2,21.092,4.713,4.713,0,0,1-3.214,1.253H15.281a4.714,4.714,0,0,1-3.215-1.253,28.774,28.774,0,0,1-7.485-11.3q-.468-1.29-.813-2.635A28.813,28.813,0,0,1,28.7,12.942,28.792,28.792,0,0,1,54.544,41.58Zm0,0" transform="translate(4.304 19.414)" fill="#c0694e"/>
        <path id="Trazado_125612" data-name="Trazado 125612" d="M57.309,35.036l-.1.125-5.784,10.6a2.427,2.427,0,0,1-4.446-.43l-2.361-7.461a2.427,2.427,0,0,0-4.252-.73L36.6,42.126a2.428,2.428,0,0,1-4.338-1.094l-1.374-8.994a2.428,2.428,0,0,0-4.632-.589l-6.721,15.7a2.428,2.428,0,0,1-4.656-.813L14.389,37.9a2.427,2.427,0,0,0-4.6-.937L2.586,51.472l-.366-.005q-.468-1.29-.813-2.635a28.791,28.791,0,1,1,55.9-13.8Zm0,0" transform="translate(0.763 19.323)" fill="#954c35"/>
        <path id="Trazado_125613" data-name="Trazado 125613" d="M32.241,13.033a28.808,28.808,0,0,0-30.833,35.8q.344,1.343.813,2.635l.366.005,3.89-7.834q-.066-.977-.066-1.968A28.793,28.793,0,0,1,32.241,13.033Zm0,0" transform="translate(0.763 19.323)" fill="#7c3f2c"/>
        <path id="Trazado_125614" data-name="Trazado 125614" d="M54.9,0A30.017,30.017,0,0,0,28.356,16a1.265,1.265,0,0,0,2.236,1.184,27.53,27.53,0,0,1,51,6.006L75.944,33.543a1.163,1.163,0,0,1-2.13-.208l-2.361-7.461a3.692,3.692,0,0,0-6.466-1.11l-3.759,4.982a1.162,1.162,0,0,1-2.077-.524l-1.376-8.994a3.693,3.693,0,0,0-7.043-.894L44.238,34.5c-.824-.442-1.671-.848-2.538-1.212l-.414-7.08a3.694,3.694,0,0,0-6.993-1.427l-3.069,6.181a30.261,30.261,0,0,0-3.8.095,27.5,27.5,0,0,1,1.291-9.417,1.265,1.265,0,0,0-2.409-.774,30.05,30.05,0,0,0-1.4,10.517A30.012,30.012,0,0,0,3.485,46.947,1.265,1.265,0,0,0,5.721,48.13a27.526,27.526,0,0,1,50.993,6.01L51.072,64.483a1.169,1.169,0,0,1-1.9.212,1.265,1.265,0,0,0-1.783-.139c-1.348,1.154.531,3.062,2.672,3.062a3.638,3.638,0,0,0,3.233-1.925l4.138-7.586a27.447,27.447,0,0,1-8.64,23.051,3.444,3.444,0,0,1-2.354.916H13.683a3.436,3.436,0,0,1-2.354-.916,27.464,27.464,0,0,1-6.807-9.883l7.165-14.428a1.162,1.162,0,0,1,2.2.449l.494,8.437a3.693,3.693,0,0,0,7.08,1.237l6.722-15.7a1.1,1.1,0,0,1,1.054-.706,1.128,1.128,0,0,1,1.164.988l1.375,8.993a3.693,3.693,0,0,0,6.6,1.665l3.758-4.982a1.162,1.162,0,0,1,2.037.35l1.132,3.58a1.265,1.265,0,0,0,2.412-.763l-1.132-3.58a3.694,3.694,0,0,0-6.468-1.11l-3.758,4.982a1.108,1.108,0,0,1-.912.465,1.155,1.155,0,0,1-1.165-.989L32.9,51.171a3.692,3.692,0,0,0-7.044-.9l-6.722,15.7a1.162,1.162,0,0,1-2.23-.39l-.494-8.437a3.692,3.692,0,0,0-6.992-1.427L3.4,67.855A27.7,27.7,0,0,1,3.846,52.58a1.265,1.265,0,0,0-2.409-.772,30.037,30.037,0,0,0,8.171,31.2A5.962,5.962,0,0,0,13.683,84.6H46.437a5.964,5.964,0,0,0,4.075-1.591,30.019,30.019,0,0,0,8.694-29.35h12.1a5.969,5.969,0,0,0,4.075-1.59A30.048,30.048,0,0,0,54.9,0ZM33.936,31.189l2.623-5.283a1.162,1.162,0,0,1,2.2.451l.351,5.979a29.721,29.721,0,0,0-5.176-1.147ZM73.662,50.22a3.446,3.446,0,0,1-2.354.914H58.451A30.214,30.214,0,0,0,46.432,35.8L53.057,20.33a1.161,1.161,0,0,1,2.217.281L56.65,29.6a3.691,3.691,0,0,0,6.6,1.666L67,26.288a1.162,1.162,0,0,1,2.037.349L71.4,34.1a3.692,3.692,0,0,0,6.762.654L82.3,27.164A27.465,27.465,0,0,1,73.662,50.22Zm0,0" transform="translate(0 0)"/>
        <path id="Trazado_125615" data-name="Trazado 125615" d="M20.122,7.985A1.955,1.955,0,1,1,18.166,6.03,1.955,1.955,0,0,1,20.122,7.985Zm0,0" transform="translate(24.317 9.045)"/>
        <path id="Trazado_125616" data-name="Trazado 125616" d="M23.81,5.091a1.955,1.955,0,1,1-1.955-1.955A1.955,1.955,0,0,1,23.81,5.091Zm0,0" transform="translate(29.85 4.704)"/>
        <path id="Trazado_125617" data-name="Trazado 125617" d="M28.086,8.767a1.955,1.955,0,1,1-1.955-1.955A1.955,1.955,0,0,1,28.086,8.767Zm0,0" transform="translate(36.264 10.218)"/>
        <path id="Trazado_125618" data-name="Trazado 125618" d="M32.217,8.767a1.955,1.955,0,1,1-1.955-1.955A1.955,1.955,0,0,1,32.217,8.767Zm0,0" transform="translate(42.461 10.218)"/>
        <path id="Trazado_125619" data-name="Trazado 125619" d="M18.557,19.981A1.955,1.955,0,1,1,16.6,18.026,1.955,1.955,0,0,1,18.557,19.981Zm0,0" transform="translate(21.971 27.039)"/>
        <path id="Trazado_125620" data-name="Trazado 125620" d="M12.8,17.737a1.955,1.955,0,1,1-1.955-1.955A1.955,1.955,0,0,1,12.8,17.737Zm0,0" transform="translate(13.34 23.674)"/>
        <path id="Trazado_125621" data-name="Trazado 125621" d="M9.2,20.763a1.955,1.955,0,1,1-1.955-1.955A1.955,1.955,0,0,1,9.2,20.763Zm0,0" transform="translate(7.937 28.212)"/>
        <path id="Trazado_125622" data-name="Trazado 125622" d="M23.175,21.663a1.955,1.955,0,1,1-1.955-1.955A1.955,1.955,0,0,1,23.175,21.663Zm0,0" transform="translate(28.897 29.563)"/>
      </g>
    </g>
  </g>
</svg>
