<svg xmlns="http://www.w3.org/2000/svg" xmlns:xlink="http://www.w3.org/1999/xlink" width="130" height="120" viewBox="0 0 130 120">
  <defs>
    <clipPath id="clip-path">
      <rect id="Rect치ngulo_35862" data-name="Rect치ngulo 35862" width="78" height="82" transform="translate(968 1799)" fill="#fd7f23"/>
    </clipPath>
  </defs>
  <g id="Grupo_176254" data-name="Grupo 176254" transform="translate(-942 -1780)">
    <rect id="Rect치ngulo_35863" data-name="Rect치ngulo 35863" width="130" height="120" transform="translate(942 1780)" fill="none"/>
    <g id="Enmascarar_grupo_276" data-name="Enmascarar grupo 276" clip-path="url(#clip-path)">
      <g id="molienda" transform="translate(968 1801)">
        <g id="Grupo_176326" data-name="Grupo 176326">
          <path id="Trazado_125935" data-name="Trazado 125935" d="M19.533,53.724l1.758-2.232a1.583,1.583,0,0,1,2.362-.14l3.575,3.575a1.034,1.034,0,0,1-.8,1.763l-5.76-.408a1.582,1.582,0,0,1-1.131-2.558Z" fill="#dd7f66"/>
        </g>
        <g id="Grupo_176327" data-name="Grupo 176327">
          <path id="Trazado_125936" data-name="Trazado 125936" d="M27.709,42.02l2.76-.676a1.582,1.582,0,0,1,1.947,1.344l.615,5.018a1.034,1.034,0,0,1-1.719.893l-4.287-3.868A1.582,1.582,0,0,1,27.709,42.02Z" fill="#dd7f66"/>
        </g>
        <g id="Grupo_176328" data-name="Grupo 176328">
          <path id="Trazado_125937" data-name="Trazado 125937" d="M38.077,53.83l.676,2.76a1.582,1.582,0,0,1-1.344,1.947l-5.018.615a1.034,1.034,0,0,1-.893-1.719l3.868-4.287a1.582,1.582,0,0,1,2.712.684Z" fill="#dd7f66"/>
        </g>
        <g id="Grupo_176329" data-name="Grupo 176329">
          <path id="Trazado_125938" data-name="Trazado 125938" d="M28.764,61.709l.676,2.76A1.582,1.582,0,0,1,28.1,66.416l-5.018.615a1.034,1.034,0,0,1-.893-1.719l3.868-4.287A1.582,1.582,0,0,1,28.764,61.709Z" fill="#dd7f66"/>
        </g>
        <g id="Grupo_176330" data-name="Grupo 176330">
          <path id="Trazado_125939" data-name="Trazado 125939" d="M43.594,43.458l.676,2.76a1.582,1.582,0,0,1-1.344,1.947l-5.018.615a1.034,1.034,0,0,1-.893-1.719l3.868-4.287a1.582,1.582,0,0,1,2.712.684Z" fill="#dd7f66"/>
        </g>
        <g id="Grupo_176331" data-name="Grupo 176331">
          <path id="Trazado_125940" data-name="Trazado 125940" d="M36.48,64.124l2.257,1.726a1.582,1.582,0,0,1,.174,2.36l-3.523,3.626a1.034,1.034,0,0,1-1.774-.779l.325-5.765A1.582,1.582,0,0,1,36.48,64.124Z" fill="#dd7f66"/>
        </g>
        <g id="Grupo_176332" data-name="Grupo 176332">
          <path id="Trazado_125941" data-name="Trazado 125941" d="M44.49,59.97l2.674-.96a1.582,1.582,0,0,0,.881-2.2L45.788,52.29a1.034,1.034,0,0,0-1.927.2l-1.438,5.592A1.582,1.582,0,0,0,44.49,59.97Z" fill="#dd7f66"/>
        </g>
        <g id="Grupo_176333" data-name="Grupo 176333">
          <path id="Trazado_125942" data-name="Trazado 125942" d="M55.681,57.293l1.765,2.227a1.582,1.582,0,0,1-.41,2.33l-4.3,2.652a1.034,1.034,0,0,1-1.529-1.19l1.728-5.51A1.582,1.582,0,0,1,55.681,57.293Z" fill="#dd7f66"/>
        </g>
        <g id="Grupo_176334" data-name="Grupo 176334">
          <path id="Trazado_125943" data-name="Trazado 125943" d="M49.859,40.2l2.765-.654a1.582,1.582,0,0,1,1.936,1.36l.575,5.023a1.034,1.034,0,0,1-1.726.88l-4.256-3.9A1.582,1.582,0,0,1,49.859,40.2Z" fill="#dd7f66"/>
        </g>
        <g id="Grupo_176335" data-name="Grupo 176335">
          <path id="Trazado_125944" data-name="Trazado 125944" d="M46.153,74.34l-2.7-.877A1.583,1.583,0,0,1,42.5,71.3L44.619,66.7a1.034,1.034,0,0,1,1.932.144l1.611,5.545a1.582,1.582,0,0,1-2.008,1.947Z" fill="#dd7f66"/>
        </g>
        <g id="Grupo_176336" data-name="Grupo 176336">
          <path id="Trazado_125945" data-name="Trazado 125945" d="M20.684,47.281l-2.822-.329a1.582,1.582,0,0,1-1.356-1.939L17.679,40.1a1.034,1.034,0,0,1,1.923-.238l2.669,5.12a1.582,1.582,0,0,1-1.586,2.3Z" fill="#dd7f66"/>
        </g>
        <path id="Trazado_125946" data-name="Trazado 125946" d="M46.671,28.885a32.466,32.466,0,0,1-.659,6.548H8.35a32.466,32.466,0,0,1-.659-6.548c0-13.975,8.725-25.3,19.49-25.3S46.671,14.91,46.671,28.885Z" fill="#e49280"/>
        <path id="Trazado_125947" data-name="Trazado 125947" d="M17.917,28.885a32.465,32.465,0,0,0,.659,6.548H8.35a32.466,32.466,0,0,1-.659-6.548c0-13.976,8.727-25.3,19.489-25.3a15.283,15.283,0,0,1,5.113.881C24.01,7.378,17.917,17.2,17.917,28.885Z" fill="#dd7f66"/>
        <path id="Trazado_125948" data-name="Trazado 125948" d="M33.758,35.432H26.134a26.038,26.038,0,0,0-2.527-4.126c-3.827-4.844-4.161-12.992.141-17.479a1.541,1.541,0,0,1,2.652.952,23.952,23.952,0,0,0,1.091,5.593,19.389,19.389,0,0,0,3.26,6.089c.166.248.483.731.664,1.013A14.036,14.036,0,0,1,33.758,35.432Z" fill="#c4573a"/>
        <path id="Trazado_125949" data-name="Trazado 125949" d="M70.309,29.918a27.337,27.337,0,0,1-.555,5.515H38.034a27.337,27.337,0,0,1-.555-5.515c0-11.77,7.349-21.312,16.415-21.312S70.309,18.147,70.309,29.918Z" fill="#e49280"/>
        <path id="Trazado_125950" data-name="Trazado 125950" d="M46.091,29.918a27.337,27.337,0,0,0,.555,5.515H38.034a27.337,27.337,0,0,1-.555-5.515c0-11.771,7.35-21.312,16.414-21.312a12.872,12.872,0,0,1,4.306.742C51.222,11.8,46.091,20.081,46.091,29.918Z" fill="#dd7f66"/>
        <path id="Trazado_125951" data-name="Trazado 125951" d="M59.433,35.432H53.012a21.943,21.943,0,0,0-2.128-3.475c-3.223-4.08-3.5-10.943.119-14.721a1.3,1.3,0,0,1,2.234.8,20.175,20.175,0,0,0,.919,4.711A16.331,16.331,0,0,0,56.9,27.877c.14.209.407.616.559.853a11.821,11.821,0,0,1,1.974,6.7Z" fill="#c4573a"/>
        <path id="Trazado_125952" data-name="Trazado 125952" d="M76.857,34.29H71.119a28.759,28.759,0,0,0,.333-4.372,26.179,26.179,0,0,0-4.611-15.18,1.143,1.143,0,0,0-1.857,1.331,23.882,23.882,0,0,1,4.182,13.848A26.386,26.386,0,0,1,68.8,34.29H60.531A12.7,12.7,0,0,0,58.41,28.1c-.158-.247-.42-.644-.56-.855l-.022-.032a15.57,15.57,0,0,1-2.571-4.761c0-.016-.009-.032-.014-.047a18.966,18.966,0,0,1-.868-4.446,2.44,2.44,0,0,0-4.2-1.512,11.361,11.361,0,0,0-2.945,8.047,13.56,13.56,0,0,0,2.736,8.151c.378.53.76,1.081,1.113,1.647h-12.1a26.386,26.386,0,0,1-.364-4.372c0-11.121,6.851-20.169,15.272-20.169a12.534,12.534,0,0,1,7.648,2.718,1.143,1.143,0,1,0,1.391-1.813,14.8,14.8,0,0,0-9.04-3.19,15.166,15.166,0,0,0-10.737,4.672c-3.9-6.1-9.776-9.7-15.975-9.7-5.569,0-10.785,2.79-14.687,7.857a30.508,30.508,0,0,0-5.946,18.59,33.924,33.924,0,0,0,.434,5.405H1.143a1.143,1.143,0,0,0,0,2.285H76.857a1.143,1.143,0,1,0,0-2.285Zm-25.044-3-.033-.044c-3.04-3.848-3.018-10.027.046-13.221A.147.147,0,0,1,52,17.987a.134.134,0,0,1,.1.132,21.222,21.222,0,0,0,.962,4.953,17.521,17.521,0,0,0,2.9,5.457c.139.209.391.593.536.819l.023.034a10.343,10.343,0,0,1,1.719,4.909h-4.52a26.313,26.313,0,0,0-1.905-3ZM8.833,28.885c0-13.323,8.231-24.162,18.348-24.162a14.71,14.71,0,0,1,8.352,2.652,20.8,20.8,0,0,1,6.036,6.537c-.063.079-.126.158-.188.239a25.874,25.874,0,0,0-5.045,15.767,28.743,28.743,0,0,0,.333,4.372h-1.8a14.89,14.89,0,0,0-2.5-7.449c-.184-.285-.5-.766-.667-1.017l-.019-.028a18.743,18.743,0,0,1-3.086-5.724q-.006-.024-.014-.047A22.757,22.757,0,0,1,27.54,14.7a2.683,2.683,0,0,0-4.617-1.664,13.949,13.949,0,0,0-3.269,11.621,1.143,1.143,0,0,0,2.262-.324,11.662,11.662,0,0,1,2.655-9.715.389.389,0,0,1,.433-.1.37.37,0,0,1,.257.343A25,25,0,0,0,26.395,20.7a20.694,20.694,0,0,0,3.418,6.42c.167.248.469.711.642.98l.022.033a12.541,12.541,0,0,1,2.1,6.164H26.846a30.544,30.544,0,0,0-2.308-3.648L24.5,30.6a11.754,11.754,0,0,1-1.053-1.592,1.143,1.143,0,0,0-2,1.106,14.028,14.028,0,0,0,1.242,1.88c.525.736,1.055,1.507,1.533,2.3H9.3a31.577,31.577,0,0,1-.465-5.405Z"/>
        <g id="Grupo_176348" data-name="Grupo 176348">
          <g id="Grupo_176337" data-name="Grupo 176337">
            <path id="Trazado_125953" data-name="Trazado 125953" d="M26.5,57.837c-.053,0-.106,0-.159-.006l-5.76-.408a2.725,2.725,0,0,1-1.948-4.4l1.758-2.232a2.725,2.725,0,0,1,4.067-.24l3.575,3.575A2.177,2.177,0,0,1,26.5,57.837Zm0-2.285h0ZM20.43,54.433a.44.44,0,0,0,.314.711l5.47.388-3.369-3.369a.44.44,0,0,0-.657.039Z"/>
          </g>
          <g id="Grupo_176338" data-name="Grupo 176338">
            <path id="Trazado_125954" data-name="Trazado 125954" d="M32,50.014a2.163,2.163,0,0,1-1.453-.564L26.26,45.581a2.725,2.725,0,0,1,1.177-4.67l2.76-.676A2.725,2.725,0,0,1,33.55,42.55l.615,5.018a2.159,2.159,0,0,1-1.156,2.2A2.182,2.182,0,0,1,32,50.014Zm.078-2.261h0Zm-1.231-5.311a.441.441,0,0,0-.106.013l-2.76.676a.44.44,0,0,0-.19.754l4.071,3.673-.58-4.729a.441.441,0,0,0-.435-.387Zm-3.138-.421h0Z"/>
          </g>
          <g id="Grupo_176339" data-name="Grupo 176339">
            <path id="Trazado_125955" data-name="Trazado 125955" d="M32.256,60.3a2.177,2.177,0,0,1-1.608-3.635l3.868-4.287a2.725,2.725,0,0,1,4.67,1.177l.676,2.76a2.725,2.725,0,0,1-2.315,3.353l-5.018.615A2.235,2.235,0,0,1,32.256,60.3Zm4.275-6.538a.417.417,0,0,0-.318.146L32.54,57.983l4.729-.58a.44.44,0,0,0,.374-.541l-.676-2.76a.424.424,0,0,0-.32-.322.488.488,0,0,0-.116-.014Z"/>
          </g>
          <g id="Grupo_176340" data-name="Grupo 176340">
            <path id="Trazado_125956" data-name="Trazado 125956" d="M22.943,68.183a2.177,2.177,0,0,1-1.608-3.635L25.2,60.261a2.725,2.725,0,0,1,4.67,1.177l.676,2.76a2.725,2.725,0,0,1-2.315,3.353l-5.018.615a2.261,2.261,0,0,1-.273.017Zm4.275-6.538a.417.417,0,0,0-.318.146l-3.673,4.071,4.729-.58a.44.44,0,0,0,.374-.541l-.676-2.76a.424.424,0,0,0-.32-.322.485.485,0,0,0-.116-.014Z"/>
          </g>
          <g id="Grupo_176341" data-name="Grupo 176341">
            <path id="Trazado_125957" data-name="Trazado 125957" d="M37.774,49.932A2.177,2.177,0,0,1,36.166,46.3l3.868-4.287a2.725,2.725,0,0,1,4.67,1.177l.676,2.76A2.725,2.725,0,0,1,43.065,49.3l-5.018.615a2.239,2.239,0,0,1-.273.017Zm4.275-6.538a.417.417,0,0,0-.318.146l-3.674,4.071,4.729-.58a.44.44,0,0,0,.374-.541l-.676-2.76a.424.424,0,0,0-.32-.322.482.482,0,0,0-.116-.014Z"/>
          </g>
          <g id="Grupo_176342" data-name="Grupo 176342">
            <path id="Trazado_125958" data-name="Trazado 125958" d="M34.653,73.3a2.192,2.192,0,0,1-.882-.187,2.159,2.159,0,0,1-1.3-2.116l.325-5.765a2.725,2.725,0,0,1,4.376-2.011l2.257,1.726a2.725,2.725,0,0,1,.3,4.063l-3.523,3.626a2.16,2.16,0,0,1-1.554.663Zm.871-8.357a.457.457,0,0,0-.189.043.424.424,0,0,0-.255.375l-.309,5.475,3.32-3.417a.44.44,0,0,0-.048-.656l-2.257-1.726a.425.425,0,0,0-.262-.093Z"/>
          </g>
          <g id="Grupo_176343" data-name="Grupo 176343">
            <path id="Trazado_125959" data-name="Trazado 125959" d="M43.953,61.207a2.726,2.726,0,0,1-2.637-3.4l1.438-5.592a2.177,2.177,0,0,1,4.056-.43L49.067,56.3a2.725,2.725,0,0,1-1.517,3.781l-2.674.96a2.733,2.733,0,0,1-.923.161Zm.537-1.237h0Zm.405-6.909-1.366,5.311a.44.44,0,0,0,.575.523l2.674-.96a.44.44,0,0,0,.245-.61Z"/>
          </g>
          <g id="Grupo_176344" data-name="Grupo 176344">
            <path id="Trazado_125960" data-name="Trazado 125960" d="M52.187,65.8a2.183,2.183,0,0,1-2.075-2.832l1.728-5.51a2.725,2.725,0,0,1,4.735-.877h0l1.765,2.227a2.725,2.725,0,0,1-.706,4.013l-4.3,2.652a2.176,2.176,0,0,1-1.144.328Zm2.261-7.966a.478.478,0,0,0-.087.008.424.424,0,0,0-.34.3L52.38,63.377l4.057-2.5a.44.44,0,0,0,.114-.648L54.785,58h0A.417.417,0,0,0,54.448,57.836Z"/>
          </g>
          <g id="Grupo_176345" data-name="Grupo 176345">
            <path id="Trazado_125961" data-name="Trazado 125961" d="M54.1,48.231a2.164,2.164,0,0,1-1.466-.576l-4.256-3.9a2.725,2.725,0,0,1,1.214-4.66l2.765-.654A2.725,2.725,0,0,1,55.7,40.78l.575,5.023A2.158,2.158,0,0,1,55.1,47.99a2.186,2.186,0,0,1-.993.241Zm.079-2.26h0Zm-4.06-4.654a.44.44,0,0,0-.2.752l4.042,3.706-.542-4.734a.44.44,0,0,0-.538-.378Z"/>
          </g>
          <g id="Grupo_176346" data-name="Grupo 176346">
            <path id="Trazado_125962" data-name="Trazado 125962" d="M46.644,75.562a2.733,2.733,0,0,1-.844-.134l-2.7-.877a2.725,2.725,0,0,1-1.633-3.733l2.116-4.591a2.177,2.177,0,0,1,4.067.3l1.611,5.545a2.726,2.726,0,0,1-2.615,3.486Zm-1.11-8.114L43.54,71.774a.44.44,0,0,0,.264.6l2.7.877a.44.44,0,0,0,.558-.541Z"/>
          </g>
          <g id="Grupo_176347" data-name="Grupo 176347">
            <path id="Trazado_125963" data-name="Trazado 125963" d="M20.87,48.435a2.763,2.763,0,0,1-.318-.018l-2.822-.329a2.725,2.725,0,0,1-2.335-3.339l1.173-4.918a2.177,2.177,0,0,1,4.047-.5l2.669,5.12a2.725,2.725,0,0,1-2.414,3.985Zm-.053-2.288a.44.44,0,0,0,.441-.64l-2.535-4.862-1.105,4.635a.44.44,0,0,0,.377.539Z"/>
          </g>
        </g>
      </g>
    </g>
  </g>
</svg>
