<svg xmlns="http://www.w3.org/2000/svg" xmlns:xlink="http://www.w3.org/1999/xlink" width="85" height="85" viewBox="0 0 85 85">
  <defs>
    <clipPath id="clip-path">
      <rect id="Rectángulo_35799" data-name="Rectángulo 35799" width="85" height="85" transform="translate(285 1029)" fill="#fff" stroke="#707070" stroke-width="1"/>
    </clipPath>
  </defs>
  <g id="Grupo_176398" data-name="Grupo 176398" transform="translate(-443 -1038)">
    <g id="Enmascarar_grupo_263" data-name="Enmascarar grupo 263" transform="translate(158 9)" clip-path="url(#clip-path)">
      <g id="chocolate" transform="translate(291.23 1029)">
        <path id="Trazado_125580" data-name="Trazado 125580" d="M13.59,11.263,1.969,22.884a5.025,5.025,0,0,0,0,7.106L38.761,66.781a5.025,5.025,0,0,0,7.106,0L69.075,43.574a5.024,5.024,0,0,0,0-7.106l-23.5-23.5a3.151,3.151,0,0,0-3.377-.708c-11.138,4.358-18.86,2.605-24.607-1.377a3.141,3.141,0,0,0-4,.379Zm0,0" transform="translate(0.747 15.502)" fill="#d2996f"/>
        <g id="Grupo_176130" data-name="Grupo 176130" transform="translate(1.245 25.837)">
          <path id="Trazado_125581" data-name="Trazado 125581" d="M16.6,10.433a3.16,3.16,0,0,0-3.014.831L1.969,22.884a5.025,5.025,0,0,0,0,7.106L17.676,45.7C13.616,35.14,12.3,20.67,16.6,10.433Zm0,0" transform="translate(-0.498 -10.335)" fill="#c47b46"/>
          <path id="Trazado_125582" data-name="Trazado 125582" d="M19.325,23.917l-5.816,5.816a2.79,2.79,0,0,1-3.945,0L3.749,23.917a2.79,2.79,0,0,1,0-3.945l5.816-5.816a2.789,2.789,0,0,1,3.945,0l5.816,5.816A2.789,2.789,0,0,1,19.325,23.917Zm0,0" transform="translate(3.153 -5.828)" fill="#c47b46"/>
          <path id="Trazado_125583" data-name="Trazado 125583" d="M24.748,29.339l-5.816,5.816a2.788,2.788,0,0,1-3.944,0L9.172,29.339a2.788,2.788,0,0,1,0-3.944l5.816-5.816a2.788,2.788,0,0,1,3.944,0l5.816,5.816A2.79,2.79,0,0,1,24.748,29.339Zm0,0" transform="translate(11.286 2.305)" fill="#c47b46"/>
          <path id="Trazado_125584" data-name="Trazado 125584" d="M30.17,23.917l-5.816,5.816a2.79,2.79,0,0,1-3.944,0l-5.816-5.816a2.789,2.789,0,0,1,0-3.945l5.816-5.816a2.788,2.788,0,0,1,3.944,0l5.816,5.816A2.789,2.789,0,0,1,30.17,23.917Zm0,0" transform="translate(19.42 -5.828)" fill="#c47b46"/>
          <path id="Trazado_125585" data-name="Trazado 125585" d="M30.17,34.761l-5.816,5.816a2.788,2.788,0,0,1-3.944,0l-5.816-5.816a2.788,2.788,0,0,1,0-3.944L20.41,25a2.79,2.79,0,0,1,3.944,0l5.816,5.816A2.788,2.788,0,0,1,30.17,34.761Zm0,0" transform="translate(19.42 10.439)" fill="#c47b46"/>
          <path id="Trazado_125586" data-name="Trazado 125586" d="M35.592,29.339l-5.816,5.816a2.789,2.789,0,0,1-3.945,0l-5.816-5.816a2.79,2.79,0,0,1,0-3.944l5.816-5.816a2.789,2.789,0,0,1,3.945,0l5.816,5.816A2.788,2.788,0,0,1,35.592,29.339Zm0,0" transform="translate(27.554 2.305)" fill="#c47b46"/>
          <path id="Trazado_125587" data-name="Trazado 125587" d="M8.393,11.178A2.783,2.783,0,0,0,9.17,13.6l5.816,5.816a2.79,2.79,0,0,0,3.944,0L24.746,13.6a2.778,2.778,0,0,0,.632-.981c-7.056,1.763-12.554.84-16.986-1.444Zm0,0" transform="translate(11.288 -9.07)" fill="#c47b46"/>
        </g>
        <path id="Trazado_125588" data-name="Trazado 125588" d="M11.022,5.523v11.4a1.961,1.961,0,0,0,2.289,1.934c6.783-1.152,13.413-5.141,18.24-15.568A1.962,1.962,0,0,0,29.776.5H16.047a5.025,5.025,0,0,0-5.025,5.025Zm0,0" transform="translate(16.533 0.747)" fill="#d2996f"/>
        <path id="Trazado_125589" data-name="Trazado 125589" d="M13.009,5.266v8.225a2.774,2.774,0,0,0,.525,1.624c4.75-1.519,9.29-4.753,13.033-10.989a2.788,2.788,0,0,0-2.543-1.649H15.8a2.79,2.79,0,0,0-2.789,2.789Zm0,0" transform="translate(19.514 3.716)" fill="#c47b46"/>
        <path id="Trazado_125590" data-name="Trazado 125590" d="M18.648,11.458V8.088a1.253,1.253,0,0,1,1.809-1.123l3.11,1.541a1.253,1.253,0,0,1,.079,2.2l-3.11,1.83a1.253,1.253,0,0,1-1.888-1.08Zm0,0" transform="translate(27.972 10.25)" fill="#d2996f"/>
        <path id="Trazado_125591" data-name="Trazado 125591" d="M21.393,4.724l1.171,3.019a1.361,1.361,0,0,0,2.3.4L27.3,5.333a1.361,1.361,0,0,0-.948-2.252L22.74,2.873a1.36,1.36,0,0,0-1.347,1.851Zm0,0" transform="translate(31.949 4.306)" fill="#d2996f"/>
        <path id="Trazado_125592" data-name="Trazado 125592" d="M27.448,20.122a3.2,3.2,0,0,0,2.6.711,24.644,24.644,0,0,0,3.353-.811l.037-.012c6.8-2.172,11.977-7.255,15.771-15.449A3.207,3.207,0,0,0,46.309,0H32.579A6.277,6.277,0,0,0,26.31,6.27v4.409a1.245,1.245,0,1,0,2.49,0V6.27A3.783,3.783,0,0,1,32.579,2.49H46.309a.691.691,0,0,1,.6.327.717.717,0,0,1,.045.7q-.524,1.133-1.088,2.179a4.022,4.022,0,0,0-2.329-.746H35.312a4.039,4.039,0,0,0-4.034,4.034v8.225a4.078,4.078,0,0,0,.084.807c-.564.142-1.139.266-1.726.365a.715.715,0,0,1-.835-.706v-1.2a1.245,1.245,0,0,0-2.49,0v1.2a3.2,3.2,0,0,0,1.138,2.449Zm6.32-11.141a1.546,1.546,0,0,1,1.544-1.544h8.225a1.541,1.541,0,0,1,1.062.431,22.31,22.31,0,0,1-10.83,9.384c0-.016,0-.03,0-.045ZM52.091,17.64,48.981,16.1a2.5,2.5,0,0,0-3.606,2.239v3.37a2.493,2.493,0,0,0,3.765,2.153l3.11-1.829a2.5,2.5,0,0,0-.158-4.392Zm-1.1,2.245-3.122,1.831a.047.047,0,0,1,0-.008l.012-3.377,3.113,1.539S50.991,19.883,50.987,19.885ZM52.181,9.479,53.352,12.5a2.587,2.587,0,0,0,1.981,1.624,2.667,2.667,0,0,0,.457.04,2.583,2.583,0,0,0,1.957-.9l2.446-2.811a2.606,2.606,0,0,0-1.816-4.312L54.76,5.936a2.606,2.606,0,0,0-2.579,3.543Zm2.337-1.01a.1.1,0,0,1,.1-.047l3.617.208a.1.1,0,0,1,.1.071.1.1,0,0,1-.019.121l-2.446,2.811a.1.1,0,0,1-.107.038.105.105,0,0,1-.088-.073L54.5,8.579A.1.1,0,0,1,54.517,8.469Zm-7.764,47.04a4.009,4.009,0,0,0,1.182,2.853l5.816,5.816a4.034,4.034,0,0,0,5.7,0l5.816-5.816a4.033,4.033,0,0,0,0-5.705L59.456,46.84a4.038,4.038,0,0,0-5.7,0l-5.816,5.816A4.01,4.01,0,0,0,46.753,55.509ZM49.7,54.417,55.512,48.6a1.546,1.546,0,0,1,2.183,0l5.816,5.816a1.543,1.543,0,0,1,0,2.183L57.7,62.417a1.544,1.544,0,0,1-2.183,0L49.7,56.6a1.543,1.543,0,0,1,0-2.183ZM26.638,64.177a4.035,4.035,0,0,0,5.705,0l5.816-5.816a4.035,4.035,0,0,0,0-5.705L32.344,46.84a4.039,4.039,0,0,0-5.705,0l-5.816,5.816a4.038,4.038,0,0,0,0,5.7Zm-4.055-9.761L28.4,48.6a1.546,1.546,0,0,1,2.183,0L36.4,54.417a1.544,1.544,0,0,1,0,2.183l-5.816,5.816a1.544,1.544,0,0,1-2.183,0L22.584,56.6a1.544,1.544,0,0,1,0-2.183ZM40.195,77.734a4.039,4.039,0,0,0,5.705,0l5.816-5.816a4.035,4.035,0,0,0,0-5.705L45.9,60.4a4.035,4.035,0,0,0-5.705,0l-5.816,5.816a4.035,4.035,0,0,0,0,5.705ZM36.14,67.973l5.816-5.816a1.544,1.544,0,0,1,2.183,0l5.816,5.816a1.544,1.544,0,0,1,0,2.184l-5.816,5.816a1.545,1.545,0,0,1-2.183,0L36.14,70.157a1.544,1.544,0,0,1,0-2.184ZM70.7,51.089l-23.5-23.5a4.4,4.4,0,0,0-4.711-.986c-9.312,3.644-16.98,3.238-23.443-1.241a4.379,4.379,0,0,0-5.593.522L1.836,37.505a6.269,6.269,0,0,0,0,8.866L38.628,83.163a6.269,6.269,0,0,0,8.866,0l3.322-3.322a1.245,1.245,0,1,0-1.761-1.761L45.733,81.4a3.779,3.779,0,0,1-5.344,0L3.6,44.611a3.779,3.779,0,0,1,0-5.344l11.62-11.62a1.89,1.89,0,0,1,2.412-.236q1,.69,2.025,1.265a4.041,4.041,0,0,0,1.168,2.574l5.816,5.816a4.04,4.04,0,0,0,5.7,0l5.816-5.816a3.97,3.97,0,0,0,.615-.794A43.839,43.839,0,0,0,43.4,28.924a1.905,1.905,0,0,1,2.043.428l23.5,23.5a3.779,3.779,0,0,1,0,5.344L53.2,73.938A1.245,1.245,0,1,0,54.96,75.7L70.7,59.956a6.271,6.271,0,0,0,0-8.867ZM30.583,35.3a1.545,1.545,0,0,1-2.183,0l-4.929-4.928a24.055,24.055,0,0,0,11.109.931ZM45.9,33.284a4.035,4.035,0,0,0-5.705,0L34.379,39.1a4.039,4.039,0,0,0,0,5.705l5.816,5.816a4.039,4.039,0,0,0,5.705,0l5.816-5.816a4.04,4.04,0,0,0,0-5.705Zm4.055,9.761-5.816,5.816a1.546,1.546,0,0,1-2.183,0L36.14,43.045a1.546,1.546,0,0,1,0-2.183l5.816-5.816a1.543,1.543,0,0,1,2.184,0l5.816,5.816a1.546,1.546,0,0,1,0,2.183ZM24.6,44.805a4.04,4.04,0,0,0,0-5.705l-5.816-5.815a4.034,4.034,0,0,0-5.705,0L7.267,39.1a4.038,4.038,0,0,0,0,5.7l5.816,5.816a4.041,4.041,0,0,0,5.705,0L24.6,44.805h0Zm-1.761-1.761h0l-5.816,5.816a1.546,1.546,0,0,1-2.183,0L9.028,43.045a1.546,1.546,0,0,1,0-2.183l5.816-5.816a1.543,1.543,0,0,1,2.183,0l5.816,5.816a1.545,1.545,0,0,1,0,2.183Zm0,0" transform="translate(0 0)"/>
      </g>
    </g>
  </g>
</svg>
