<svg xmlns="http://www.w3.org/2000/svg" xmlns:xlink="http://www.w3.org/1999/xlink" width="85" height="85" viewBox="0 0 85 85">
  <defs>
    <clipPath id="clip-path">
      <rect id="Rectángulo_35794" data-name="Rectángulo 35794" width="85" height="85" transform="translate(285 897)" fill="#fff" stroke="#707070" stroke-width="1"/>
    </clipPath>
  </defs>
  <g id="Grupo_176395" data-name="Grupo 176395" transform="translate(-653 -837)">
    <g id="Enmascarar_grupo_260" data-name="Enmascarar grupo 260" transform="translate(368 -60)" clip-path="url(#clip-path)">
      <g id="galletas" transform="translate(285 904.986)">
        <g id="Grupo_176125" data-name="Grupo 176125" transform="translate(1.242 1.239)">
          <path id="Trazado_125551" data-name="Trazado 125551" d="M77.8,11.642A22.416,22.416,0,0,0,49.524,6.664a20.822,20.822,0,0,0-5.5,4.591,3,3,0,0,1-4.55,0,20.822,20.822,0,0,0-5.5-4.591,22.409,22.409,0,0,0-23.445.7c-.079.052-.086.555-.164.607A20.786,20.786,0,0,0,6.146,12.1a21.022,21.022,0,0,0-4.5,7.551c-.037.126-.3.11-.34.237-2.372,8.552.67,18.08,6.239,25.4a71.529,71.529,0,0,0,16.232,14.9c1.46,1.013,3.362,1.676,4.863,2.616,2.5,1.565,4.619,3.342,7.136,4.706,1.557.844,3.107,1.649,4.636,2.415a2.982,2.982,0,0,0,2.674,0q1.556-.78,3.138-1.615a1.155,1.155,0,0,0,.595-1.246,6.139,6.139,0,0,1,7-7.273,1.181,1.181,0,0,0,1.281-.7,6.141,6.141,0,0,1,8.769-2.867,1.148,1.148,0,0,0,1.3-.1,68.713,68.713,0,0,0,8.4-7.932c.155-.176.072-.64.225-.817.67-.778.933-1.479,1.546-2.283A42.8,42.8,0,0,0,80.9,35.726c.17-.415.519-.587.657-1.011,2.544-7.8,2-16.277-3.759-23.074Z" transform="translate(-0.497 -3.69)" fill="#d77f4a"/>
          <g id="Grupo_176124" data-name="Grupo 176124" transform="translate(38.764 0.001)">
            <path id="Trazado_125552" data-name="Trazado 125552" d="M43.189,11.641A22.424,22.424,0,0,0,23.573,3.829a22.42,22.42,0,0,1,14.636,7.812c8.539,10.077,5.614,23.84-1.844,33.639a62.459,62.459,0,0,1-9.879,10.092,6.1,6.1,0,0,1,2.772.843,1.148,1.148,0,0,0,1.3-.1,68.714,68.714,0,0,0,8.4-7.932c.139-.158.087-.658.225-.817.686-.8,1.085-1.843,1.712-2.666a37.237,37.237,0,0,0,5.454-9.2c.111-.289.5-.492.6-.79,2.544-7.8,2-16.277-3.759-23.073Z" transform="translate(-4.647 -3.691)" fill="#c86d36"/>
            <path id="Trazado_125553" data-name="Trazado 125553" d="M32.507,24.358a6.141,6.141,0,0,0-5.645,3.722,1.181,1.181,0,0,1-1.281.7,6.139,6.139,0,0,0-7,7.273,1.155,1.155,0,0,1-.595,1.246q-1,.527-1.986,1.03.579.3,1.155.585a2.982,2.982,0,0,0,2.674,0q1.556-.78,3.138-1.615a1.155,1.155,0,0,0,.595-1.246,6.139,6.139,0,0,1,7-7.273,1.181,1.181,0,0,0,1.281-.7A6.161,6.161,0,0,1,35,24.888a6.11,6.11,0,0,0-2.491-.53Z" transform="translate(-16.002 27.311)" fill="#c86d36"/>
          </g>
          <circle id="Elipse_4001" data-name="Elipse 4001" cx="3.652" cy="3.652" r="3.652" transform="translate(59.591 9.335)" fill="#ecbba3"/>
          <path id="Trazado_125554" data-name="Trazado 125554" d="M27.288,7.424a3.639,3.639,0,0,0-2.49.982,3.65,3.65,0,0,1,0,5.342,3.652,3.652,0,1,0,2.49-6.323Z" transform="translate(35.955 1.911)" fill="#e8ad8c"/>
          <circle id="Elipse_4002" data-name="Elipse 4002" cx="3.652" cy="3.652" r="3.652" transform="translate(35.975 20.48)" fill="#ecbba3"/>
          <path id="Trazado_125555" data-name="Trazado 125555" d="M17.842,11.882a3.639,3.639,0,0,0-2.49.982,3.65,3.65,0,0,1,0,5.342,3.652,3.652,0,1,0,2.49-6.323Z" transform="translate(21.785 8.598)" fill="#e8ad8c"/>
          <circle id="Elipse_4003" data-name="Elipse 4003" cx="3.652" cy="3.652" r="3.652" transform="translate(21.97 40.725)" fill="#ecbba3"/>
          <path id="Trazado_125556" data-name="Trazado 125556" d="M12.24,19.98a3.639,3.639,0,0,0-2.49.982,3.65,3.65,0,0,1,0,5.342,3.652,3.652,0,1,0,2.49-6.323Z" transform="translate(13.383 20.745)" fill="#e8ad8c"/>
          <circle id="Elipse_4004" data-name="Elipse 4004" cx="5.238" cy="5.238" r="5.238" transform="translate(13.146 16.902)" fill="#ecbba3"/>
          <path id="Trazado_125557" data-name="Trazado 125557" d="M9.345,10.451a5.213,5.213,0,0,0-2.49.629,5.24,5.24,0,0,1,0,9.219,5.239,5.239,0,1,0,2.49-9.848Z" transform="translate(9.04 6.451)" fill="#e8ad8c"/>
          <path id="Trazado_125558" data-name="Trazado 125558" d="M4.627,18.666A7.841,7.841,0,0,0,10.05,5.159a22.527,22.527,0,0,0-4.834,4.28A21.577,21.577,0,0,0,.822,17.681a7.806,7.806,0,0,0,3.8.985Z" transform="translate(-0.008 -1.488)" fill="#ecbba3"/>
          <path id="Trazado_125559" data-name="Trazado 125559" d="M9.262,5.159a22.442,22.442,0,0,0-3.2,2.55A7.8,7.8,0,0,1,6.7,10.822,7.845,7.845,0,0,1,1.348,18.26a7.842,7.842,0,0,0,7.914-13.1Z" transform="translate(0.78 -1.488)" fill="#e8ad8c"/>
          <path id="Trazado_125560" data-name="Trazado 125560" d="M21.809,34.336c.02-.228.032-.458.032-.691A7.842,7.842,0,0,0,9.811,27.014,128.666,128.666,0,0,0,21.809,34.336Z" transform="translate(13.474 29.477)" fill="#ecbba3"/>
          <path id="Trazado_125561" data-name="Trazado 125561" d="M36.191,15.751a7.844,7.844,0,0,0-4.4,14.341q1.255-1.421,2.386-2.9a36.1,36.1,0,0,0,5.6-10.566,7.807,7.807,0,0,0-3.593-.872Z" transform="translate(41.28 14.401)" fill="#ecbba3"/>
          <path id="Trazado_125562" data-name="Trazado 125562" d="M39.265,16.623a7.808,7.808,0,0,0-3.593-.872,7.9,7.9,0,0,0-1.142.084,35.836,35.836,0,0,1-5.836,11.338,7.877,7.877,0,0,0,2.583,2.919q1.255-1.421,2.386-2.9A36.1,36.1,0,0,0,39.265,16.623Z" transform="translate(41.799 14.401)" fill="#e8ad8c"/>
        </g>
        <path id="Trazado_125563" data-name="Trazado 125563" d="M79.5,11.58A23.7,23.7,0,0,0,49.65,6.327a22.046,22.046,0,0,0-5.825,4.864,1.751,1.751,0,0,1-2.654,0,22.045,22.045,0,0,0-5.825-4.864A23.574,23.574,0,0,0,.134,29.433,35.1,35.1,0,0,0,7.3,46.778c.582.764,1.2,1.534,1.848,2.289a1.245,1.245,0,0,0,1.893-1.618C10.43,46.73,9.838,46,9.284,45.27A32.582,32.582,0,0,1,2.612,29.184a22.658,22.658,0,0,1,.314-6.817,9.081,9.081,0,0,0,12.023-8.6A8.994,8.994,0,0,0,13.2,8.405a21.2,21.2,0,0,1,20.913.083,19.558,19.558,0,0,1,5.166,4.318,4.241,4.241,0,0,0,6.445,0,19.564,19.564,0,0,1,5.167-4.318,21.206,21.206,0,0,1,26.71,4.7,20.908,20.908,0,0,1,4.788,15.994,27.477,27.477,0,0,1-.877,4.6,9.068,9.068,0,0,0-5.528-.027,1.245,1.245,0,0,0,.748,2.375,6.6,6.6,0,0,1,1.985-.3,6.537,6.537,0,0,1,2.032.321,35.141,35.141,0,0,1-5.032,9.117q-.737.968-1.553,1.933A6.6,6.6,0,0,1,73,39.133a1.245,1.245,0,0,0-2.156-1.246,9.085,9.085,0,0,0,1.669,11.18,69.3,69.3,0,0,1-7.323,6.784,7.386,7.386,0,0,0-10.465,3.442,7.385,7.385,0,0,0-8.388,8.686c-1.012.534-2.04,1.063-3.056,1.572a1.746,1.746,0,0,1-1.558,0q-2.007-1.006-3.917-2.03a9.085,9.085,0,0,0-13.2-8.066,81.988,81.988,0,0,1-9.619-7.846A1.245,1.245,0,1,0,13.254,53.4c7.455,7.172,17.655,13.514,27.35,18.373a4.248,4.248,0,0,0,3.79,0c1.051-.527,2.115-1.074,3.161-1.627a2.413,2.413,0,0,0,1.234-2.593,4.941,4.941,0,0,1-.053-1.617,4.883,4.883,0,0,1,4.151-4.194,4.959,4.959,0,0,1,1.481.013,2.43,2.43,0,0,0,2.624-1.44,4.9,4.9,0,0,1,6.99-2.287,2.4,2.4,0,0,0,2.718-.2,62.92,62.92,0,0,0,11-11.05,34.882,34.882,0,0,0,7.169-17.345A23.346,23.346,0,0,0,79.5,11.58ZM5.86,20.367a6.61,6.61,0,0,1-2.288-.413A20.462,20.462,0,0,1,7.4,13.19a21.231,21.231,0,0,1,3.7-3.437,6.528,6.528,0,0,1,1.363,4.015,6.606,6.606,0,0,1-6.6,6.6ZM27.1,61.162a6.581,6.581,0,0,1,8.041,4.9Q30.854,63.653,27.1,61.162Zm13.771-27.7a4.9,4.9,0,1,0-4.9-4.9A4.9,4.9,0,0,0,40.869,33.464Zm0-7.3a2.407,2.407,0,1,1-2.407,2.407A2.41,2.41,0,0,1,40.869,26.159ZM33.894,56.193a1.245,1.245,0,0,0,1.761,1.761l1.939-1.939a1.245,1.245,0,1,0-1.761-1.761ZM31.4,35.856a1.245,1.245,0,1,0-1.761,1.761l1.939,1.939A1.245,1.245,0,0,0,33.336,37.8ZM21.967,48.811a4.9,4.9,0,1,0,4.9-4.9A4.9,4.9,0,0,0,21.967,48.811Zm7.3,0A2.407,2.407,0,1,1,26.865,46.4,2.41,2.41,0,0,1,29.272,48.811Zm32.309-1.184-1.939,1.939A1.245,1.245,0,0,0,61.4,51.327l1.939-1.939a1.245,1.245,0,1,0-1.761-1.761Zm2.9-25.309a4.9,4.9,0,1,0-4.9-4.9A4.9,4.9,0,0,0,64.486,22.318Zm0-7.3a2.407,2.407,0,1,1-2.407,2.407A2.41,2.41,0,0,1,64.486,15.013ZM59.41,33.159,61.349,35.1a1.245,1.245,0,1,0,1.761-1.761L61.171,31.4a1.245,1.245,0,0,0-1.761,1.761Zm14.445-6.736,1.939-1.939a1.245,1.245,0,1,0-1.761-1.761l-1.939,1.939a1.245,1.245,0,0,0,1.761,1.761Zm-60.712.15a6.484,6.484,0,1,0,6.484-6.484,6.491,6.491,0,0,0-6.484,6.484Zm10.477,0a3.993,3.993,0,1,1-3.993-3.993A4,4,0,0,1,23.62,26.574Zm2.074-14.656a1.245,1.245,0,1,0-1.761,1.761l1.939,1.939a1.245,1.245,0,1,0,1.761-1.761Zm25.693,9.292a1.245,1.245,0,1,0,1.761-1.761l-1.939-1.939a1.245,1.245,0,0,0-1.761,1.761ZM15.911,36.822l-1.939,1.939a1.245,1.245,0,1,0,1.761,1.761l1.939-1.939a1.245,1.245,0,0,0-1.761-1.761ZM46.6,41.549a1.245,1.245,0,0,0,1.761,1.761L50.3,41.371a1.245,1.245,0,1,0-1.761-1.761Z" transform="translate(0 -3.195)"/>
      </g>
    </g>
  </g>
</svg>
