<svg xmlns="http://www.w3.org/2000/svg" xmlns:xlink="http://www.w3.org/1999/xlink" width="85" height="85" viewBox="0 0 85 85">
  <defs>
    <clipPath id="clip-path">
      <rect id="Rectángulo_35796" data-name="Rectángulo 35796" width="85" height="85" transform="translate(285 985)" fill="#fff" stroke="#707070" stroke-width="1"/>
    </clipPath>
  </defs>
  <g id="Grupo_176397" data-name="Grupo 176397" transform="translate(-1073 -828)">
    <g id="Enmascarar_grupo_262" data-name="Enmascarar grupo 262" transform="translate(788 -157)" clip-path="url(#clip-path)">
      <g id="hormiga-roja" transform="translate(293.244 985)">
        <g id="Grupo_176128" data-name="Grupo 176128" transform="translate(29.82 7.357)">
          <path id="Trazado_125567" data-name="Trazado 125567" d="M19.373,8.406c-.061-.063-.709-4.113-.886-5.229a.279.279,0,0,0-.339-.227,4.255,4.255,0,0,0-2.421,1.44c-.979,1.287-.226,5.7-.226,5.7Z" transform="translate(-15.226 -2.943)" fill="#c4573a"/>
          <path id="Trazado_125568" data-name="Trazado 125568" d="M17.115,8.406c.061-.063.709-4.113.886-5.229a.279.279,0,0,1,.339-.227A4.254,4.254,0,0,1,20.76,4.39c.979,1.287.226,5.7.226,5.7Z" transform="translate(-12.391 -2.943)" fill="#c4573a"/>
        </g>
        <path id="Trazado_125569" data-name="Trazado 125569" d="M28.717,14.179c0,4.421-3.279,6.456-7.323,6.456s-7.323-2.035-7.323-6.456,3.279-9.555,7.323-9.555S28.717,9.758,28.717,14.179Z" transform="translate(12.863 6.937)" fill="#d6694b"/>
        <path id="Trazado_125570" data-name="Trazado 125570" d="M18.493,4.625A5.207,5.207,0,0,0,16,5.285c2.819,1.525,4.835,5.428,4.835,8.894A5.946,5.946,0,0,1,16,20.347a10.322,10.322,0,0,0,2.488.289c4.044,0,7.323-2.035,7.323-6.456s-3.279-9.555-7.323-9.555Z" transform="translate(15.763 6.937)" fill="#c4573a"/>
        <path id="Trazado_125571" data-name="Trazado 125571" d="M31.1,20.009c0-5.779-3.945-10.464-8.812-10.464s-8.812,4.685-8.812,10.464A11.563,11.563,0,0,0,15.8,27.092a18.611,18.611,0,0,1,4,11.389v1.384h4.977V38.481a18.611,18.611,0,0,1,4-11.389A11.561,11.561,0,0,0,31.1,20.009Z" transform="translate(11.969 14.318)" fill="#7a6d79"/>
        <path id="Trazado_125572" data-name="Trazado 125572" d="M18.493,9.545A7.526,7.526,0,0,0,16,9.971c3.654,1.276,6.323,5.285,6.323,10.038A11.563,11.563,0,0,1,20,27.092a18.612,18.612,0,0,0-4,11.389v1.384h4.977V38.481a18.611,18.611,0,0,1,4-11.389A11.563,11.563,0,0,0,27.3,20.009C27.3,14.23,23.359,9.545,18.493,9.545Z" transform="translate(15.763 14.318)" fill="#685e68"/>
        <path id="Trazado_125573" data-name="Trazado 125573" d="M17.18,30.108h7.575a14.71,14.71,0,0,1,1.079-1.6,8.676,8.676,0,0,0,1.746-5.315c0-4.337-2.96-7.852-6.612-7.852s-6.612,3.516-6.612,7.852A8.677,8.677,0,0,0,16.1,28.509a14.687,14.687,0,0,1,1.079,1.6Z" transform="translate(13.289 23.012)" fill="#c4573a"/>
        <path id="Trazado_125574" data-name="Trazado 125574" d="M18.493,15.341A5.7,5.7,0,0,0,16,15.919a7.968,7.968,0,0,1,4.124,7.275,8.677,8.677,0,0,1-1.746,5.315,14.694,14.694,0,0,0-1.079,1.6H22.28a14.711,14.711,0,0,1,1.079-1.6,8.676,8.676,0,0,0,1.746-5.315C25.105,18.857,22.145,15.341,18.493,15.341Z" transform="translate(15.763 23.012)" fill="#a74b30"/>
        <path id="Trazado_125575" data-name="Trazado 125575" d="M34.361,34.965c0,9.756-4.858,19.761-10.85,19.761s-10.85-10-10.85-19.761S17.518,19.4,23.51,19.4s10.85,5.813,10.85,15.569Z" transform="translate(10.746 29.094)" fill="#d6694b"/>
        <path id="Trazado_125576" data-name="Trazado 125576" d="M18.493,19.4A8.9,8.9,0,0,0,16,19.751c4.793,1.392,8.362,6.853,8.362,15.215S20.8,51.871,16,54.142a5.775,5.775,0,0,0,2.488.584c5.992,0,10.85-10,10.85-19.761S24.485,19.4,18.493,19.4Z" transform="translate(15.763 29.094)" fill="#c4573a"/>
        <g id="Grupo_176129" data-name="Grupo 176129" transform="translate(0 0)">
          <path id="Trazado_125577" data-name="Trazado 125577" d="M70.749,49.364c-6.014-.9-7.014-3.567-7.981-6.15a18.375,18.375,0,0,0-.76-1.828c-1.572-3.122-9.457-7.132-11.021-7.9a1.244,1.244,0,0,0-1.468.275,19.855,19.855,0,0,1-1.979,1.805,13.5,13.5,0,0,0-.2-4.028A13.629,13.629,0,0,0,52.7,27.276c3.461-4.7,5.563-11.513,6.169-13.663l1.014-.335a1.244,1.244,0,0,0-.78-2.363l-1.649.544a1.244,1.244,0,0,0-.816.873c-.021.083-2.165,8.339-5.942,13.467a11.053,11.053,0,0,1-4.079,3.324A11.877,11.877,0,0,0,44.553,25.8a6.786,6.786,0,0,0,1.131-2.052,1.244,1.244,0,0,0-2.352-.813,4.346,4.346,0,0,1-.637,1.2,8.9,8.9,0,0,0-10.282,0,5.1,5.1,0,0,1-.938-3.153c0-3.741,2.805-8.311,6.079-8.311,2.59,0,4.7,2.771,5.567,5.346a1.244,1.244,0,1,0,2.358-.793,12.713,12.713,0,0,0-2.344-4.17c.05-.513.078-.976.091-1.392,1.092-3.527,3.523-9.18,7.876-9.18A1.244,1.244,0,0,0,51.1,0c-4.473,0-7.292,3.858-8.963,7.53a5.648,5.648,0,0,0-2.8-1.508,1.519,1.519,0,0,0-1.784,1.025,1.519,1.519,0,0,0-1.784-1.025,5.651,5.651,0,0,0-2.793,1.5C30.769,2.642,27.654,0,24.006,0a1.244,1.244,0,0,0,0,2.488c4.368,0,6.805,5.732,7.875,9.179.012.421.042.89.093,1.41-2.87,3.335-4.289,9.136-1.42,12.728a11.88,11.88,0,0,0-2.061,3.318A11.051,11.051,0,0,1,24.415,25.8c-3.777-5.128-5.921-13.385-5.943-13.467a1.244,1.244,0,0,0-.816-.873l-1.649-.544a1.244,1.244,0,1,0-.78,2.363l1.014.335c.606,2.149,2.708,8.964,6.17,13.663a13.631,13.631,0,0,0,5.352,4.257,13.5,13.5,0,0,0-.2,4.027,20.168,20.168,0,0,1-1.979-1.8,1.245,1.245,0,0,0-1.468-.275c-1.565.772-9.449,4.783-11.021,7.9a18.374,18.374,0,0,0-.76,1.828c-.967,2.583-1.967,5.255-7.981,6.15a1.244,1.244,0,0,0,.182,2.475c7.405-.934,9.153-4.966,10.13-7.753a16.321,16.321,0,0,1,.652-1.581c.859-1.706,5.738-4.654,9.1-6.391a23.384,23.384,0,0,0,4.042,3.106,11.969,11.969,0,0,0,1.617,2.823c.094.122.188.245.279.37A10.3,10.3,0,0,0,29.742,47a28,28,0,0,1-9.063,1.015,1.244,1.244,0,0,0-1.358,1.22c0,.147-.308,14.632-7.227,19.768l-4.551.769a1.244,1.244,0,0,0,.414,2.454l4.836-.817A1.247,1.247,0,0,0,13.3,71.2c6.9-4.822,8.206-16.673,8.453-20.635a32.655,32.655,0,0,0,8.5-1.128q.091.265.2.523c-5.7,4.99-6.085,16.981-3.2,24.54a1.244,1.244,0,1,0,2.348-.823,29.8,29.8,0,0,1-1.647-9.75c0-8.435,3.95-14.325,9.606-14.325S47.16,55.5,47.16,63.931C47.139,75.84,39.415,89.156,32,78.592a1.244,1.244,0,1,0-2.06,1.4C43.6,98.246,57.278,61.615,44.657,49.964q.105-.258.2-.523a32.491,32.491,0,0,0,8.5,1.128c.247,3.963,1.557,15.813,8.453,20.635a1.247,1.247,0,0,0,.506.207l4.836.817a1.244,1.244,0,1,0,.415-2.454l-4.551-.769c-6.907-5.128-7.225-19.621-7.227-19.768a1.244,1.244,0,0,0-1.358-1.22A27.958,27.958,0,0,1,45.365,47a10.3,10.3,0,0,0-.623-4.589c.092-.124.185-.248.279-.369a11.979,11.979,0,0,0,1.617-2.824,23.36,23.36,0,0,0,4.042-3.106c3.366,1.736,8.244,4.683,9.1,6.391a16.362,16.362,0,0,1,.652,1.581c.976,2.786,2.726,6.82,10.13,7.753a1.244,1.244,0,0,0,.182-2.475ZM40.5,9.429a3.674,3.674,0,0,1,.247,1.626A6.926,6.926,0,0,0,39.5,10.5c.1-.578.192-1.176.274-1.684A2.34,2.34,0,0,1,40.5,9.429Zm-5.161-.61c.082.511.179,1.112.275,1.693a7.005,7.005,0,0,0-1.248.559,3.71,3.71,0,0,1,.247-1.641A2.34,2.34,0,0,1,35.336,8.819Zm-2.8,39.6c-1.337-3.938,1.151-9.008,5.016-8.952,3.864-.057,6.353,5.014,5.016,8.951A10.349,10.349,0,0,0,32.538,48.422Zm5.016-11.44A7.423,7.423,0,0,0,31.7,40.023c-3.873-5.453-.8-15.035,5.857-15.044,6.655.009,9.73,9.592,5.857,15.044a7.423,7.423,0,0,0-5.857-3.042Z" transform="translate(-3.297 0)"/>
          <path id="Trazado_125578" data-name="Trazado 125578" d="M17.394,6.815a1.244,1.244,0,1,0-1.528,1.964l.306.238A1.244,1.244,0,0,0,17.7,7.053Z" transform="translate(14.835 9.83)"/>
          <path id="Trazado_125579" data-name="Trazado 125579" d="M18.283,6.815l-.306.238A1.244,1.244,0,1,0,19.5,9.018l.306-.238a1.244,1.244,0,1,0-1.528-1.964Z" transform="translate(18.001 9.83)"/>
        </g>
      </g>
    </g>
  </g>
</svg>
