<svg xmlns="http://www.w3.org/2000/svg" xmlns:xlink="http://www.w3.org/1999/xlink" width="130" height="120" viewBox="0 0 130 120">
  <defs>
    <clipPath id="clip-path">
      <rect id="Rect치ngulo_35868" data-name="Rect치ngulo 35868" width="78" height="82" transform="translate(81 -9668)" fill="#fd7f23"/>
    </clipPath>
  </defs>
  <g id="Grupo_176353" data-name="Grupo 176353" transform="translate(-55 9687)">
    <rect id="Rect치ngulo_35869" data-name="Rect치ngulo 35869" width="130" height="120" transform="translate(55 -9687)" fill="none"/>
    <g id="Enmascarar_grupo_282" data-name="Enmascarar grupo 282" clip-path="url(#clip-path)">
      <g id="XMLID_1089_" transform="translate(79 -9668)">
        <g id="XMLID_1439_">
          <g id="XMLID_2024_">
            <path id="XMLID_185_" d="M55.824,12.731l-1.43-9.473A1.441,1.441,0,0,1,55.819,1.6h5.115a1.441,1.441,0,0,1,1.418,1.7L60.63,12.731Z" fill="#c68a65"/>
          </g>
          <path id="XMLID_1978_" d="M55.784,13.305a6.085,6.085,0,0,0-3.48-1.267c-5.61,0-12.156,13.153-12.156,26.408,0,14.69,4.61,25.455,10.482,31.739a23.289,23.289,0,0,1,4.943,8.22,2.977,2.977,0,0,0,5.62,0,23.291,23.291,0,0,1,4.943-8.22C72.008,63.9,76.618,53.136,76.618,38.446c0-13.254-6.546-26.408-12.157-26.408a6.085,6.085,0,0,0-3.48,1.267Z" fill="#c68a65"/>
        </g>
        <g id="XMLID_1103_">
          <path id="XMLID_2029_" d="M39.076,20.6a6.085,6.085,0,0,0-2.38-2.837c-4.859-2.805-17.1,5.313-23.732,16.791C5.62,47.272,4.229,58.9,6.173,67.278a23.29,23.29,0,0,1,.171,9.59,2.977,2.977,0,0,0,4.867,2.81A23.291,23.291,0,0,1,19.6,75.03c8.227-2.506,17.6-9.524,24.947-22.245,6.627-11.478,7.535-26.143,2.676-28.948a6.085,6.085,0,0,0-3.647-.643Z" fill="#ffcd69"/>
          <g id="XMLID_1090_">
            <path id="XMLID_1094_" d="M38.116,27.456a8.9,8.9,0,0,0-9.782.808c-.115.091.118-.1,0,0a38.119,38.119,0,0,0-8.712,10.131c-5.557,9.626-7.73,19.52-5.961,27.146a30.527,30.527,0,0,1,.575,3.277,30.542,30.542,0,0,1,3.125-1.14c7.49-2.281,14.972-9.11,20.529-18.735a38.12,38.12,0,0,0,4.417-12.611c.024-.15-.021.145,0,0a8.9,8.9,0,0,0-4.192-8.875Z" fill="#fff3da"/>
          </g>
        </g>
        <g id="XMLID_48_">
          <path id="XMLID_188_" d="M74.091,19.588c-2.749-5.815-6.259-9.151-9.63-9.151a6.456,6.456,0,0,0-1.834.273l1.3-7.121A3.043,3.043,0,0,0,60.934,0H55.819A3.043,3.043,0,0,0,52.81,3.5l1.079,7.144a6.388,6.388,0,0,0-1.584-.2c-3.353,0-6.835,3.312-9.545,8.974a4.762,4.762,0,0,0-2.819-.59A7.034,7.034,0,0,0,37.5,16.372c-2.421-1.4-6.095-.864-10.346,1.5a41.479,41.479,0,0,0-11.3,9.738,1.6,1.6,0,1,0,2.471,2.039c6.606-8.005,14.725-12.15,17.572-10.506a4.514,4.514,0,0,1,1.725,2.117,1.6,1.6,0,0,0,1.875.878,2.2,2.2,0,0,1,1.663.044,2.2,2.2,0,0,1,.869,1.419,1.6,1.6,0,0,0,1.7,1.185,4.514,4.514,0,0,1,2.7.435c1.723.995,2.576,4.8,2.174,9.7a42.33,42.33,0,0,1-5.436,17.057C36.841,62.931,28.083,70.773,19.134,73.5a24.735,24.735,0,0,0-8.969,4.965,1.375,1.375,0,0,1-2.249-1.3,24.738,24.738,0,0,0-.184-10.25C6.024,59.551,7.248,50.559,11.178,41.6a1.6,1.6,0,0,0-2.933-1.287C4.039,49.9,2.749,59.606,4.612,67.64a21.549,21.549,0,0,1,.157,8.931,4.579,4.579,0,0,0,7.485,4.321,21.551,21.551,0,0,1,7.813-4.329,38.244,38.244,0,0,0,13.377-7.605,54.507,54.507,0,0,0,8.749-9.585,37.421,37.421,0,0,0,7.267,11.906,21.557,21.557,0,0,1,4.6,7.656,4.579,4.579,0,0,0,8.644,0,21.554,21.554,0,0,1,4.6-7.656A38.24,38.24,0,0,0,75.088,58a58.389,58.389,0,0,0,3.131-19.557,45.647,45.647,0,0,0-4.128-18.859ZM60.742,3.2,59.4,10.554a4.461,4.461,0,0,0-1.017-.117,4.532,4.532,0,0,0-1.258.179L56.005,3.2ZM48.025,22.45a6.8,6.8,0,0,0-2.749-.851c2.435-5.457,5.3-7.959,7.029-7.959a3.344,3.344,0,0,1,1.023.174,29.337,29.337,0,0,0-3.6,10.166,5.744,5.744,0,0,0-1.7-1.53ZM64.965,69.091a24.739,24.739,0,0,0-5.284,8.785,1.375,1.375,0,0,1-2.6,0A24.738,24.738,0,0,0,51.8,69.091,35.458,35.458,0,0,1,44.413,56.1q.779-1.227,1.522-2.511a45.644,45.644,0,0,0,5.854-18.4q.072-.871.1-1.7v0a48.534,48.534,0,0,1,2.549-14.7c1.431-3.8,2.978-5.151,3.948-5.151,2.644,0,6.483,8.725,6.483,22.4a98.506,98.506,0,0,1-3.122,25.675,1.6,1.6,0,1,0,3.084.866A101.767,101.767,0,0,0,68.07,36.037a56.888,56.888,0,0,0-2.452-17.481,20.821,20.821,0,0,0-2.19-4.739,3.349,3.349,0,0,1,1.034-.178c1.99,0,4.633,2.872,6.734,7.317a42.331,42.331,0,0,1,3.821,17.49C75.016,51.087,71.353,62.256,64.965,69.091Z"/>
          <path id="XMLID_233_" d="M12.1,65.9a29.074,29.074,0,0,1,.545,3.1,1.6,1.6,0,0,0,2.221,1.282,29.057,29.057,0,0,1,2.961-1.081c7.874-2.4,15.692-9.493,21.45-19.466a40.127,40.127,0,0,0,4.614-13.179c0-.023,0,.025,0,0a10.547,10.547,0,0,0-4.975-10.494,10.64,10.64,0,0,0-11.632.939c-.021.015.017-.015,0,0a39.909,39.909,0,0,0-9.05,10.586C12.477,47.567,10.242,57.885,12.1,65.9ZM18.579,43.9l6.146,3.549L22.593,51.14l-5.641-3.257q.707-1.979,1.627-3.986Zm2.43-4.7c.357-.618.746-1.235,1.16-1.849l6.291,3.632-2.133,3.694L20,41.019Q20.484,40.107,21.009,39.2ZM38.8,43.25l-5.965-3.444,2.133-3.694L40.11,39.08A37.727,37.727,0,0,1,38.8,43.25Zm-1.276,2.962c-.324.666-.664,1.312-1.021,1.929s-.709,1.2-1.075,1.786L29.1,46.273l2.133-3.694ZM31.008,56l-5.641-3.257L27.5,49.048,33.646,52.6Q32.37,54.392,31.008,56ZM20.992,53.914l-2.133,3.694-3.839-2.217a38.055,38.055,0,0,1,.944-4.38Zm-3.734,6.468L15.03,64.239a24.464,24.464,0,0,1-.349-5.344Zm.547,5.459,2.227-3.857,2.575,1.487a24.454,24.454,0,0,1-4.8,2.37Zm7.668-4.415L21.633,59.21l2.133-3.694,5.028,2.9A38.077,38.077,0,0,1,25.472,61.426ZM40.762,35.758,36.57,33.338l2.03-3.516A7.447,7.447,0,0,1,40.762,35.758ZM35.826,28.22,33.8,31.736,29.6,29.315A7.448,7.448,0,0,1,35.826,28.22Zm-8.773,3.322,5.142,2.968L30.062,38.2,24.1,34.76a37.7,37.7,0,0,1,2.956-3.219Z"/>
          <path id="XMLID_249_" d="M12.965,36.152a1.6,1.6,0,1,0-1.132-.469A1.613,1.613,0,0,0,12.965,36.152Z"/>
        </g>
      </g>
    </g>
  </g>
</svg>
